<svg xmlns="http://www.w3.org/2000/svg" xmlns:xlink="http://www.w3.org/1999/xlink" viewBox="0,0,256,256" width="400px" height="400px"><g fill="none" fill-rule="nonzero" stroke="none" stroke-width="1" stroke-linecap="butt" stroke-linejoin="miter" stroke-miterlimit="10" stroke-dasharray="" stroke-dashoffset="0" font-family="none" font-weight="none" font-size="none" text-anchor="none" style="mix-blend-mode: normal"><g transform="scale(2.56,2.56)"><path d="M70.645,82h-41.29c-6.271,0 -11.355,-5.084 -11.355,-11.355v-41.29c0,-6.271 5.084,-11.355 11.355,-11.355h41.29c6.271,0 11.355,5.084 11.355,11.355v41.29c0,6.271 -5.084,11.355 -11.355,11.355z" fill="#6693c1"></path><path d="M70.645,83h-41.29c-6.813,0 -12.355,-5.542 -12.355,-12.354v-41.292c0,-6.812 5.542,-12.354 12.355,-12.354h41.29c6.813,0 12.355,5.542 12.355,12.354v41.291c0,6.813 -5.542,12.355 -12.355,12.355zM29.355,19c-5.71,0 -10.355,4.645 -10.355,10.354v41.291c0,5.71 4.645,10.355 10.355,10.355h41.29c5.71,0 10.355,-4.645 10.355,-10.354v-41.292c0,-5.709 -4.645,-10.354 -10.355,-10.354z" fill="#eeecd9"></path><path d="M69.5,78h-39c-4.687,0 -8.5,-3.813 -8.5,-8.5v-39c0,-4.687 3.813,-8.5 8.5,-8.5h37c0.276,0 0.5,0.224 0.5,0.5c0,0.276 -0.224,0.5 -0.5,0.5h-37c-4.136,0 -7.5,3.364 -7.5,7.5v39c0,4.136 3.364,7.5 7.5,7.5h39c4.136,0 7.5,-3.364 7.5,-7.5v-23c0,-0.276 0.224,-0.5 0.5,-0.5c0.276,0 0.5,0.224 0.5,0.5v23c0,4.687 -3.813,8.5 -8.5,8.5z" fill="#eeecd9"></path><path d="M77.5,45c-0.276,0 -0.5,-0.224 -0.5,-0.5v-8c0,-0.276 0.224,-0.5 0.5,-0.5c0.276,0 0.5,0.224 0.5,0.5v8c0,0.276 -0.224,0.5 -0.5,0.5z" fill="#eeecd9"></path><path d="M77.5,35c-0.276,0 -0.5,-0.224 -0.5,-0.5v-1c0,-0.276 0.224,-0.5 0.5,-0.5c0.276,0 0.5,0.224 0.5,0.5v1c0,0.276 -0.224,0.5 -0.5,0.5z" fill="#eeecd9"></path><g fill="#eeecd9"><path d="M63.14,59.84c0,0.05 -0.01,0.08 -0.02,0.13c-0.11,0.41 -0.22,0.8 -0.37,1.19c-0.12,0.37 -0.27,0.75 -0.44,1.12c-0.13,0.32 -0.31,0.71 -0.53,1.07c0,0.02 -0.01,0.03 -0.02,0.04c-0.19,0.36 -0.4,0.71 -0.62,1.02c0,0 -0.04,0.07 -0.08,0.13c-0.17,0.26 -0.35,0.52 -0.54,0.76c-0.28,0.35 -0.55,0.67 -0.82,0.98c-0.12,0.15 -0.28,0.31 -0.44,0.47c-0.14,0.14 -0.3,0.29 -0.46,0.42c-0.26,0.23 -0.55,0.48 -0.86,0.73c-0.27,0.22 -0.56,0.44 -0.85,0.62c-0.06,0.06 -0.13,0.1 -0.21,0.13c-0.22,0.16 -0.45,0.3 -0.7,0.44c-0.1,0.07 -0.22,0.13 -0.35,0.19c-0.04,0.04 -0.13,0.09 -0.24,0.13c-0.25,0.14 -0.5,0.26 -0.75,0.37c-0.24,0.1 -0.49,0.21 -0.73,0.3c-0.08,0.04 -0.16,0.06 -0.21,0.08l-0.43,0.16c-0.31,0.1 -0.59,0.18 -0.89,0.26c-0.02,0.01 -0.05,0.02 -0.08,0.03c-0.39,0.09 -0.78,0.18 -1.17,0.24c-0.39,0.07 -0.8,0.13 -1.23,0.16c-0.46,0.04 -0.86,0.06 -1.29,0.06c-8.17,0 -14.81,-6.65 -14.81,-14.82v-4c0,-0.15 0.04,-0.51 0.06,-0.74l0.02,-0.15c0.07,-0.51 0.17,-0.91 0.34,-1.28c0.04,-0.14 0.12,-0.3 0.21,-0.47c0.13,-0.23 0.25,-0.42 0.39,-0.6c0.09,-0.13 0.22,-0.32 0.42,-0.49c0.11,-0.11 0.24,-0.25 0.39,-0.38c0.08,-0.06 0.16,-0.12 0.23,-0.17c0.09,-0.07 0.18,-0.13 0.27,-0.19c0.05,-0.04 0.11,-0.07 0.17,-0.1c0.14,-0.09 0.3,-0.17 0.46,-0.24c0.63,-0.29 1.33,-0.44 2.04,-0.44h11c1.11,0 2.17,0.36 3.03,1.03c0.01,0 0.01,0 0.02,0.01c0.14,0.11 0.27,0.23 0.4,0.36c0.01,0 0.01,0 0.02,0.02c0.01,0 0.03,0.02 0.04,0.03c0.13,0.12 0.23,0.26 0.34,0.39c0.01,0.01 0.01,0.01 0.02,0.02c0.02,0.03 0.05,0.06 0.07,0.09c0.02,0.02 0.03,0.05 0.05,0.08c0.63,0.83 0.97,1.84 0.97,2.93c0,2.07 -1.21,3.85 -2.95,4.62c-0.3,0.14 -0.63,0.25 -0.96,0.32c-0.32,0.07 -0.65,0.1 -0.98,0.1h-8.57c-0.28,0 -0.5,-0.22 -0.5,-0.5c0,-0.28 0.22,-0.5 0.5,-0.5h8.57c0.4,0 0.79,-0.06 1.16,-0.18c0.03,-0.01 0.05,-0.02 0.08,-0.03c1.54,-0.54 2.65,-2.05 2.65,-3.83c0,-0.87 -0.27,-1.68 -0.77,-2.33c-0.03,-0.04 -0.06,-0.08 -0.08,-0.12c-0.03,-0.03 -0.05,-0.07 -0.08,-0.1c-0.05,-0.07 -0.11,-0.13 -0.17,-0.19c-0.01,-0.02 -0.03,-0.04 -0.05,-0.06c-0.02,-0.02 -0.04,-0.04 -0.06,-0.05c-0.74,-0.72 -1.72,-1.11 -2.75,-1.11h-11c-0.76,0 -1.52,0.22 -2.12,0.61c-0.15,0.1 -0.28,0.21 -0.42,0.31c-0.1,0.09 -0.22,0.21 -0.34,0.33c-0.11,0.09 -0.19,0.19 -0.29,0.35c-0.14,0.17 -0.23,0.33 -0.33,0.49c-0.04,0.09 -0.1,0.21 -0.15,0.35c-0.14,0.33 -0.23,0.64 -0.28,1.04l-0.01,0.13c-0.03,0.21 -0.06,0.51 -0.06,0.64v4c0,7.62 6.2,13.82 13.81,13.82c0.4,0 0.77,-0.02 1.15,-0.05c0.45,-0.04 0.83,-0.09 1.21,-0.16c0.36,-0.05 0.7,-0.13 1.05,-0.21c0.02,-0.02 0.05,-0.03 0.08,-0.03c0.29,-0.07 0.57,-0.16 0.84,-0.24l0.4,-0.15l0.3,0.42l-0.2,-0.46c0.33,-0.12 0.57,-0.23 0.81,-0.33c0.23,-0.1 0.46,-0.22 0.7,-0.35c0.04,-0.02 0.08,-0.04 0.13,-0.05c0.02,-0.02 0.08,-0.06 0.11,-0.07c0.09,-0.05 0.17,-0.09 0.26,-0.15c0.27,-0.15 0.49,-0.29 0.71,-0.44c0.04,-0.03 0.08,-0.05 0.13,-0.06c0.3,-0.21 0.57,-0.41 0.82,-0.61c0.3,-0.25 0.58,-0.49 0.86,-0.74c0.15,-0.12 0.28,-0.24 0.39,-0.35c0.13,-0.13 0.25,-0.26 0.37,-0.4c0.28,-0.32 0.55,-0.64 0.81,-0.96c0.16,-0.21 0.33,-0.44 0.48,-0.68l0.07,-0.1c0.23,-0.35 0.42,-0.65 0.59,-0.97c0.01,-0.04 0.03,-0.07 0.05,-0.1c0.18,-0.3 0.34,-0.65 0.46,-0.95c0.16,-0.35 0.3,-0.7 0.42,-1.05c0.14,-0.38 0.25,-0.74 0.35,-1.12c0.07,-0.26 0.35,-0.42 0.61,-0.35c0.23,0.06 0.38,0.26 0.37,0.48z"></path><path d="M61.57,48.52l-0.03,0.12l-2.33,8.67c-0.47,1.82 -2.12,3.1 -4.01,3.1c-0.4,0 -0.76,-0.04 -1.1,-0.14c-1.61,-0.43 -2.8,-1.76 -3.05,-3.37c-0.03,-0.21 -0.05,-0.43 -0.05,-0.65c0,-0.18 0.09,-0.33 0.23,-0.43c0.03,-0.01 0.05,-0.02 0.08,-0.03c0.06,-0.03 0.12,-0.04 0.19,-0.04c0.28,0 0.5,0.23 0.5,0.5c0,0.11 0,0.22 0.01,0.33c0.13,1.29 1.06,2.39 2.36,2.73c0.25,0.07 0.51,0.1 0.83,0.1c1.43,0 2.68,-0.97 3.05,-2.36l2.36,-8.79c0.22,-0.82 0.11,-1.68 -0.32,-2.41c-0.42,-0.74 -1.1,-1.26 -1.92,-1.48c-0.82,-0.22 -1.67,-0.11 -2.41,0.3c-0.74,0.43 -1.26,1.11 -1.49,1.94l-0.6,2.25l-0.07,0.24c-0.01,0.03 -0.02,0.06 -0.04,0.09c-0.07,0.17 -0.24,0.3 -0.45,0.3c-0.11,0 -0.2,-0.03 -0.28,-0.08c-0.05,-0.07 -0.11,-0.13 -0.17,-0.19c-0.03,-0.07 -0.05,-0.15 -0.05,-0.23v-0.01c0,-0.04 0.01,-0.09 0.02,-0.13l0.22,-0.81l0.46,-1.69c0.18,-0.66 0.5,-1.25 0.96,-1.74c0.19,-0.22 0.42,-0.42 0.67,-0.59c0.1,-0.08 0.21,-0.15 0.33,-0.21c0.96,-0.56 2.09,-0.7 3.16,-0.4c1.07,0.28 1.97,0.97 2.53,1.94c0.56,0.96 0.7,2.09 0.41,3.17z"></path><path d="M62.937,60.363c-0.357,0 -0.719,-0.047 -1.08,-0.143c-2.225,-0.598 -3.55,-2.894 -2.955,-5.118l1.376,-5.137c0.289,-1.077 0.98,-1.979 1.947,-2.536c0.967,-0.559 2.092,-0.703 3.17,-0.418v0c1.078,0.289 1.979,0.98 2.537,1.947c0.558,0.967 0.707,2.093 0.417,3.171l-1.376,5.135c-0.497,1.866 -2.19,3.099 -4.036,3.099zM64.31,47.868c-0.551,0 -1.094,0.145 -1.583,0.427c-0.735,0.425 -1.261,1.11 -1.481,1.931l-1.376,5.136c-0.453,1.692 0.555,3.439 2.248,3.893c1.698,0.459 3.44,-0.556 3.893,-2.247l1.376,-5.137c0.22,-0.819 0.107,-1.676 -0.317,-2.411c-0.425,-0.735 -1.11,-1.262 -1.93,-1.48v0c-0.276,-0.076 -0.555,-0.112 -0.83,-0.112z"></path><path d="M57.75,34.25l-2.61,9.77l-0.23,0.85l-1.06,3.97l-0.09,0.35l-0.02,0.07c-0.06,0.23 -0.26,0.38 -0.49,0.38c-0.02,0 -0.04,0 -0.06,-0.01c-0.03,-0.04 -0.06,-0.08 -0.08,-0.12c-0.03,-0.03 -0.05,-0.07 -0.08,-0.1c-0.05,-0.07 -0.11,-0.13 -0.17,-0.19c-0.01,-0.02 -0.03,-0.04 -0.05,-0.06c-0.02,-0.02 -0.04,-0.04 -0.06,-0.05c0,-0.03 0.01,-0.07 0.02,-0.1l0.26,-0.98l3.76,-14.03c0.44,-1.7 -0.57,-3.44 -2.25,-3.89c-0.82,-0.22 -1.67,-0.11 -2.41,0.31c-0.74,0.43 -1.26,1.12 -1.48,1.94l-2.66,9.82c-0.34,1.25 -1.48,2.12 -2.77,2.12c-1.27,0 -2.4,-0.84 -2.74,-2.04l-2.98,-9.88c-0.22,-0.84 -0.75,-1.53 -1.49,-1.96c-0.73,-0.42 -1.58,-0.53 -2.4,-0.31c-1.39,0.37 -2.36,1.63 -2.36,3.07c0,0.29 0.04,0.56 0.11,0.81l3.6,13.45l0.13,0.5c0.07,0.26 -0.09,0.54 -0.36,0.61c-0.2,0.05 -0.41,-0.03 -0.52,-0.19c-0.05,-0.05 -0.07,-0.11 -0.09,-0.17l-0.06,-0.22l-3.67,-13.71c-0.09,-0.34 -0.14,-0.7 -0.14,-1.08c0,-1.9 1.28,-3.56 3.1,-4.03c1.07,-0.29 2.2,-0.15 3.16,0.41c0.97,0.56 1.67,1.46 1.95,2.55l2.98,9.87c0.22,0.78 0.95,1.32 1.78,1.32c0.84,0 1.58,-0.57 1.81,-1.38l2.65,-9.81c0.29,-1.09 0.98,-1.99 1.95,-2.55c0.97,-0.56 2.09,-0.7 3.17,-0.41c2.21,0.58 3.54,2.87 2.95,5.1z"></path><path d="M69.67,47.96c-0.83,-1.43 -2.16,-2.45 -3.76,-2.88c-0.52,-0.14 -1.06,-0.21 -1.6,-0.21c-0.37,0 -0.74,0.03 -1.1,0.1c-0.1,-0.21 -0.2,-0.42 -0.32,-0.62c-0.82,-1.43 -2.16,-2.45 -3.75,-2.88c-0.39,-0.11 -0.79,-0.17 -1.2,-0.2l1.74,-6.49c0.43,-1.6 0.21,-3.26 -0.61,-4.69c-0.83,-1.43 -2.16,-2.45 -3.76,-2.88c-0.52,-0.14 -1.06,-0.21 -1.6,-0.21c-2.79,0 -5.24,1.88 -5.96,4.58l-2.54,9.36l-2.82,-9.4c-0.74,-2.68 -3.18,-4.54 -5.96,-4.54c-0.54,0 -1.08,0.07 -1.6,0.21c-3.29,0.88 -5.25,4.28 -4.37,7.57l3.33,12.43c-1.12,1.26 -1.76,2.89 -1.76,4.62v4.46c0,9.25 7.53,16.78 16.78,16.78c7.06,0 13.29,-4.41 15.71,-10.92c2.1,-0.56 3.81,-2.2 4.39,-4.37l1.37,-5.13c0.43,-1.6 0.21,-3.26 -0.61,-4.69zM67.87,52l-1.38,5.14c-0.42,1.57 -1.8,2.62 -3.35,2.7c-0.06,0.01 -0.13,0.01 -0.2,0.01c-0.1,0 -0.21,0 -0.32,-0.01c-1.16,4.52 -4.47,8.19 -8.78,9.81c-1.56,0.6 -3.26,0.92 -5.03,0.92c-7.88,0 -14.28,-6.39 -14.28,-14.28v-4.46c0,-1.4 0.66,-2.66 1.68,-3.47c0.13,-0.11 0.26,-0.2 0.4,-0.29l-0.11,-0.39l-3.62,-13.55c-0.53,-1.96 0.63,-3.98 2.6,-4.5c0.32,-0.09 0.64,-0.13 0.95,-0.13c1.63,0 3.11,1.08 3.55,2.73l2.97,9.88c0.3,1 1.22,1.69 2.27,1.69c1.06,0 2,-0.72 2.28,-1.75l2.66,-9.82c0.44,-1.65 1.93,-2.73 3.55,-2.73c0.32,0 0.64,0.04 0.96,0.13c1.64,0.44 2.72,1.93 2.72,3.55c0,0.31 -0.04,0.63 -0.12,0.95l-2.8,10.48l-1.02,3.79l-0.2,0.75c0,0 0.01,0.01 0.02,0.02l0.2,-0.75l0.52,-1.94c0.17,-0.63 0.49,-1.18 0.92,-1.61c0.68,-0.7 1.63,-1.11 2.63,-1.11c0.31,0 0.63,0.04 0.95,0.12c1.96,0.53 3.13,2.55 2.6,4.51l-1.31,4.88l0.14,-0.02l0.84,-3.15c0.15,-0.56 0.42,-1.05 0.78,-1.46c0.69,-0.8 1.7,-1.27 2.77,-1.27c0.32,0 0.64,0.04 0.96,0.12c1.96,0.53 3.12,2.55 2.6,4.51z"></path><path d="M48.5,64c-0.276,0 -0.5,-0.224 -0.5,-0.5v-1.75c0,-2.619 -2.131,-4.75 -4.75,-4.75h-1.75c-0.276,0 -0.5,-0.224 -0.5,-0.5c0,-0.276 0.224,-0.5 0.5,-0.5h1.75c3.17,0 5.75,2.579 5.75,5.75v1.75c0,0.276 -0.224,0.5 -0.5,0.5z"></path></g></g></g></svg>