<svg xmlns="http://www.w3.org/2000/svg" xmlns:xlink="http://www.w3.org/1999/xlink" width="500" zoomAndPan="magnify" viewBox="0 0 375 374.999991" height="500" preserveAspectRatio="xMidYMid meet" version="1.0"><path fill="#ffda7b" d="M 221.375 223.671875 C 394.042969 375.238281 71.101562 442.542969 145.65625 239.460938 C 71.101562 442.542969 -92.765625 156.234375 107.214844 172.285156 C -92.765625 156.234375 128.957031 -88.140625 159.246094 114.945312 C 128.957031 -88.140625 429.894531 47.121094 229.789062 146.65625 C 429.765625 47.25 394.042969 375.238281 221.375 223.671875 Z M 221.375 223.671875 " fill-opacity="1" fill-rule="nonzero"/><path fill="#ffffff" d="M 219.304688 183.027344 C 219.304688 184.46875 219.234375 185.90625 219.09375 187.339844 C 218.949219 188.773438 218.738281 190.199219 218.457031 191.613281 C 218.175781 193.027344 217.828125 194.421875 217.410156 195.800781 C 216.992188 197.179688 216.503906 198.535156 215.953125 199.867188 C 215.402344 201.199219 214.785156 202.5 214.109375 203.773438 C 213.429688 205.042969 212.6875 206.277344 211.886719 207.476562 C 211.085938 208.675781 210.230469 209.832031 209.316406 210.945312 C 208.398438 212.058594 207.433594 213.125 206.414062 214.144531 C 205.394531 215.164062 204.328125 216.132812 203.214844 217.046875 C 202.101562 217.960938 200.945312 218.816406 199.746094 219.617188 C 198.546875 220.417969 197.3125 221.160156 196.042969 221.839844 C 194.769531 222.519531 193.46875 223.132812 192.136719 223.683594 C 190.804688 224.238281 189.449219 224.722656 188.070312 225.140625 C 186.691406 225.558594 185.296875 225.910156 183.882812 226.191406 C 182.46875 226.472656 181.042969 226.683594 179.609375 226.824219 C 178.175781 226.964844 176.738281 227.035156 175.296875 227.035156 C 173.855469 227.035156 172.417969 226.964844 170.980469 226.824219 C 169.546875 226.683594 168.125 226.472656 166.710938 226.191406 C 165.296875 225.910156 163.898438 225.558594 162.519531 225.140625 C 161.140625 224.722656 159.785156 224.238281 158.453125 223.683594 C 157.125 223.132812 155.820312 222.519531 154.550781 221.839844 C 153.28125 221.160156 152.042969 220.417969 150.847656 219.617188 C 149.648438 218.816406 148.492188 217.960938 147.378906 217.046875 C 146.261719 216.132812 145.195312 215.164062 144.175781 214.144531 C 143.160156 213.125 142.191406 212.058594 141.277344 210.945312 C 140.363281 209.832031 139.503906 208.675781 138.703125 207.476562 C 137.902344 206.277344 137.164062 205.042969 136.484375 203.773438 C 135.804688 202.5 135.191406 201.199219 134.636719 199.867188 C 134.085938 198.535156 133.601562 197.179688 133.183594 195.800781 C 132.765625 194.421875 132.414062 193.027344 132.132812 191.613281 C 131.851562 190.199219 131.640625 188.773438 131.5 187.339844 C 131.359375 185.90625 131.289062 184.46875 131.289062 183.027344 C 131.289062 181.585938 131.359375 180.148438 131.5 178.714844 C 131.640625 177.28125 131.851562 175.855469 132.132812 174.441406 C 132.414062 173.027344 132.765625 171.632812 133.183594 170.253906 C 133.601562 168.875 134.085938 167.519531 134.636719 166.1875 C 135.191406 164.855469 135.804688 163.554688 136.484375 162.28125 C 137.164062 161.011719 137.902344 159.777344 138.703125 158.578125 C 139.503906 157.378906 140.363281 156.222656 141.277344 155.109375 C 142.191406 153.996094 143.160156 152.929688 144.175781 151.910156 C 145.195312 150.890625 146.261719 149.921875 147.378906 149.007812 C 148.492188 148.09375 149.648438 147.238281 150.847656 146.4375 C 152.042969 145.636719 153.28125 144.894531 154.550781 144.214844 C 155.820312 143.535156 157.125 142.921875 158.453125 142.371094 C 159.785156 141.816406 161.140625 141.332031 162.519531 140.914062 C 163.898438 140.496094 165.296875 140.144531 166.710938 139.863281 C 168.125 139.582031 169.546875 139.371094 170.980469 139.230469 C 172.417969 139.089844 173.855469 139.019531 175.296875 139.019531 C 176.738281 139.019531 178.175781 139.089844 179.609375 139.230469 C 181.042969 139.371094 182.46875 139.582031 183.882812 139.863281 C 185.296875 140.144531 186.691406 140.496094 188.070312 140.914062 C 189.449219 141.332031 190.804688 141.816406 192.136719 142.371094 C 193.46875 142.921875 194.769531 143.535156 196.042969 144.214844 C 197.3125 144.894531 198.546875 145.636719 199.746094 146.4375 C 200.945312 147.238281 202.101562 148.09375 203.214844 149.007812 C 204.328125 149.921875 205.394531 150.890625 206.414062 151.910156 C 207.433594 152.929688 208.398438 153.996094 209.316406 155.109375 C 210.230469 156.222656 211.085938 157.378906 211.886719 158.578125 C 212.6875 159.777344 213.429688 161.011719 214.109375 162.28125 C 214.785156 163.554688 215.402344 164.855469 215.953125 166.1875 C 216.503906 167.519531 216.992188 168.875 217.410156 170.253906 C 217.828125 171.632812 218.175781 173.027344 218.457031 174.441406 C 218.738281 175.855469 218.949219 177.28125 219.09375 178.714844 C 219.234375 180.148438 219.304688 181.585938 219.304688 183.027344 Z M 219.304688 183.027344 " fill-opacity="1" fill-rule="nonzero"/></svg>