<svg xmlns="http://www.w3.org/2000/svg" xmlns:xlink="http://www.w3.org/1999/xlink" width="500" zoomAndPan="magnify" viewBox="0 0 375 374.999991" height="500" preserveAspectRatio="xMidYMid meet" version="1.0"><path fill="#a6c6c1" d="M 119.15625 31.941406 C 129.542969 19.429688 146.351562 12.527344 162.53125 14.222656 C 178.707031 15.917969 193.753906 26.203125 201.109375 40.703125 C 207.265625 52.847656 208.046875 66.898438 211.359375 80.101562 C 214.675781 93.304688 221.972656 107.089844 234.929688 111.28125 C 252.804688 117.0625 270.25 102.207031 288.589844 98.132812 C 308.421875 93.730469 330.582031 103.671875 340.46875 121.410156 C 350.359375 139.148438 347.152344 163.210938 332.96875 177.75 C 323.734375 187.210938 310.558594 192.867188 303.609375 204.105469 C 297.488281 214.003906 297.378906 226.464844 298.992188 237.988281 C 300.601562 249.511719 303.746094 260.921875 303.457031 272.550781 C 302.953125 292.796875 291.203125 312.398438 273.582031 322.398438 C 255.960938 332.394531 233.097656 332.425781 215.449219 322.476562 C 205.273438 316.742188 196.34375 307.816406 184.785156 306.121094 C 173.457031 304.460938 162.324219 310.285156 153.410156 317.472656 C 144.496094 324.65625 136.785156 333.410156 126.996094 339.351562 C 107.523438 351.167969 80.757812 349.480469 62.921875 335.316406 C 45.089844 321.148438 37.40625 295.46875 44.527344 273.839844 C 49.269531 259.457031 59.960938 245.714844 56.902344 230.886719 C 54.835938 220.886719 46.828125 213.214844 38.457031 207.359375 C 30.089844 201.503906 20.824219 196.648438 14 189.046875 C 3.097656 176.90625 0.175781 158.214844 6.847656 143.324219 C 19.183594 115.792969 45.265625 121.175781 69.378906 116.074219 C 89.886719 111.734375 98.328125 97.75 102.359375 78.128906 C 105.703125 61.859375 108.164062 45.167969 119.15625 31.941406 Z M 119.15625 31.941406 " fill-opacity="1" fill-rule="nonzero"/><path fill="#e6e0cf" d="M 370.738281 163.050781 C 365.375 141.460938 359.15625 120.050781 353.300781 98.589844 C 348.902344 82.464844 343.125 64.121094 325.734375 58 C 305.851562 51.007812 286.375 63.042969 266.714844 64.417969 C 250.707031 65.542969 235.367188 60.835938 220.097656 56.421875 C 208.984375 48.609375 195.519531 44.464844 181.761719 44.886719 C 164.671875 45.410156 148.386719 52.628906 136.574219 65.007812 C 130.503906 71.367188 125.90625 78.792969 122.691406 86.957031 C 119.285156 95.625 117.457031 104.789062 114.652344 113.648438 C 112.011719 121.984375 108.304688 129.71875 102.179688 136.066406 C 96.621094 141.832031 90.035156 146.457031 83.742188 151.367188 C 77.523438 156.222656 71.496094 161.425781 67.078125 168.03125 C 61.988281 175.640625 59.894531 184.804688 60.46875 193.890625 C 61.746094 214.136719 73.527344 230.882812 82.046875 248.605469 C 86.316406 257.484375 89.585938 266.851562 89.875 276.78125 C 90.175781 287.128906 88.300781 297.449219 89.792969 307.765625 C 92.265625 324.851562 105.453125 336.539062 120.863281 342.632812 C 139.203125 349.882812 159.101562 348.046875 178.363281 347.570312 C 189.457031 347.296875 200.382812 347.746094 211.25 350.113281 C 221.851562 352.417969 232.1875 355.792969 242.800781 358.042969 C 260.28125 361.746094 280.503906 362.28125 295.4375 350.921875 C 309.265625 340.40625 314.613281 322.828125 317.144531 306.355469 C 319.933594 288.199219 319.804688 268.464844 329.453125 252.195312 C 337.902344 237.949219 352.933594 229.464844 363.238281 216.777344 C 368.769531 209.964844 372.550781 202.261719 373.71875 193.507812 C 375.082031 183.292969 373.199219 172.957031 370.738281 163.050781 Z M 367.796875 194.351562 C 364.808594 210.941406 351 221.109375 339.355469 231.863281 C 333.550781 237.230469 328.007812 243.03125 324.050781 249.929688 C 319.515625 257.835938 317.015625 266.707031 315.433594 275.632812 C 312.429688 292.589844 312.433594 310.160156 306.167969 326.417969 C 303.359375 333.710938 299.089844 340.550781 293.023438 345.566406 C 286.339844 351.09375 277.707031 353.761719 269.15625 354.441406 C 249.457031 356 230.910156 348.222656 211.96875 344.214844 C 201.769531 342.054688 191.472656 341.371094 181.0625 341.511719 C 170.417969 341.652344 159.773438 342.390625 149.128906 341.949219 C 133.535156 341.296875 116.8125 337.203125 105.476562 325.773438 C 99.828125 320.078125 96.46875 312.84375 95.707031 304.851562 C 94.753906 294.792969 96.734375 284.726562 96.160156 274.660156 C 95.066406 255.429688 84.140625 239.257812 75.832031 222.511719 C 68.011719 206.746094 62.222656 186.953125 73.027344 171.148438 C 81.535156 158.699219 96.0625 151.878906 106.445312 141.230469 C 112.367188 135.15625 116.488281 127.984375 119.390625 120.042969 C 122.492188 111.554688 124.277344 102.664062 126.957031 94.042969 C 131.933594 78.023438 142.175781 64.683594 157.019531 56.585938 C 158.714844 55.660156 160.445312 54.859375 162.191406 54.117188 C 169.308594 52.410156 184.496094 52.0625 191.824219 52.78125 C 206.375 54.210938 214.144531 61.34375 236.804688 67.019531 C 246.417969 69.425781 256.355469 71.089844 266.292969 70.429688 C 276.628906 69.742188 286.414062 66.402344 296.410156 63.976562 C 305.203125 61.84375 314.671875 60.542969 323.472656 63.363281 C 331.386719 65.898438 336.855469 72.058594 340.519531 79.28125 C 344.40625 86.945312 346.421875 95.433594 348.65625 103.679688 C 351.492188 114.164062 354.351562 124.648438 357.207031 135.128906 C 359.953125 145.210938 362.882812 155.257812 365.375 165.40625 C 367.667969 174.765625 369.53125 184.730469 367.796875 194.351562 Z M 367.796875 194.351562 " fill-opacity="1" fill-rule="nonzero"/></svg>