<svg xmlns="http://www.w3.org/2000/svg" xmlns:xlink="http://www.w3.org/1999/xlink" width="500" zoomAndPan="magnify" viewBox="0 0 375 374.999991" height="500" preserveAspectRatio="xMidYMid meet" version="1.0"><path fill="#debfb5" d="M 133.707031 36.597656 C 102.78125 49.476562 75.148438 71.121094 57.449219 99.554688 C 32.605469 139.457031 29.195312 191.464844 47.007812 234.960938 C 64.820312 278.457031 102.9375 312.757812 147.550781 327.609375 C 192.160156 342.460938 242.480469 338.128906 284.722656 317.484375 C 295.722656 312.109375 307.464844 303.699219 308.019531 291.476562 C 308.390625 283.382812 303.609375 276.042969 298.863281 269.472656 C 277.726562 240.230469 253.261719 213.394531 226.085938 189.652344 C 216.945312 181.664062 206.878906 173 204.78125 161.042969 C 203.21875 152.125 206.476562 143.140625 209.679688 134.667969 C 219.816406 107.859375 229.953125 81.054688 240.089844 54.246094 C 242.453125 48 244.855469 41.5 244.34375 34.84375 C 241.800781 1.710938 151.949219 28.996094 133.707031 36.597656 Z M 133.707031 36.597656 " fill-opacity="1" fill-rule="nonzero"/><path fill="#baa6a5" d="M 320.960938 260.160156 C 306.554688 243.421875 292.089844 226.730469 277.683594 209.992188 C 270.625 201.796875 263.472656 193.671875 256.523438 185.382812 C 250.640625 178.363281 244.722656 170.671875 241.625 161.949219 C 239.039062 154.664062 238.738281 146.746094 242.25 139.707031 C 244.992188 134.210938 249.296875 129.792969 253.917969 125.828125 C 263.730469 117.410156 275.527344 110.953125 283.707031 100.75 C 288.054688 95.324219 291.097656 89.175781 291.933594 82.214844 C 292.878906 74.332031 292.824219 37.832031 231.546875 39.417969 C 214.589844 38.511719 197.007812 41.703125 181.035156 47.136719 C 147.410156 58.574219 119.417969 81.917969 100.117188 111.515625 C 80.703125 141.28125 70.210938 176.738281 69.640625 212.21875 C 69.035156 249.828125 79.8125 287.832031 103.34375 317.535156 C 124.324219 344.011719 155.234375 363.292969 188.9375 367.871094 C 229.832031 373.425781 270.789062 358.070312 307.394531 341.390625 C 321.46875 334.980469 336.929688 325.664062 341.035156 309.625 C 345.871094 290.730469 332.5 273.566406 320.960938 260.160156 Z M 334.664062 306.332031 C 333.1875 313.605469 328.613281 319.40625 322.953125 324.003906 C 317.039062 328.808594 310.003906 332.292969 303.089844 335.40625 C 294.207031 339.40625 285.160156 343.109375 276.046875 346.558594 C 257.464844 353.59375 238.113281 359.449219 218.238281 361.175781 C 200.378906 362.726562 182.582031 360.726562 165.742188 354.507812 C 150.636719 348.933594 136.703125 340.167969 124.78125 329.390625 C 98.710938 305.828125 83.28125 272.890625 78.78125 238.269531 C 74.304688 203.828125 80.003906 168.03125 94.871094 136.648438 C 108.980469 106.863281 131.351562 80.660156 160.375 64.582031 C 175.28125 56.324219 191.675781 50.851562 208.527344 48.324219 C 209.203125 48.222656 209.890625 48.152344 210.570312 48.058594 C 210.980469 48.3125 211.496094 48.421875 212.101562 48.253906 C 213.191406 47.949219 214.316406 47.726562 215.421875 47.457031 C 229.867188 45.945312 244.8125 46.390625 258.925781 49.363281 C 282.558594 54.335938 288.679688 73.28125 283.222656 87.609375 C 278.976562 98.761719 267.832031 105.996094 258.671875 112.808594 C 248.679688 120.242188 238.164062 128.324219 233.917969 140.523438 C 227.828125 158.023438 238.507812 175.007812 249.210938 188.066406 C 262.421875 204.1875 276.5625 219.621094 290.234375 235.355469 C 297.160156 243.328125 304.085938 251.296875 311.015625 259.269531 C 317.261719 266.460938 323.753906 273.554688 328.683594 281.753906 C 333.066406 289.046875 336.414062 297.710938 334.664062 306.332031 Z M 334.664062 306.332031 " fill-opacity="1" fill-rule="nonzero"/></svg>