<svg xmlns="http://www.w3.org/2000/svg" xmlns:xlink="http://www.w3.org/1999/xlink" width="500" zoomAndPan="magnify" viewBox="0 0 375 374.999991" height="500" preserveAspectRatio="xMidYMid meet" version="1.0"><path fill="#bd89a9" d="M 45.273438 265.5625 C 41.703125 271.449219 38.03125 277.804688 38.355469 284.679688 C 38.796875 294.171875 46.550781 301.472656 53.746094 307.679688 C 74.277344 325.398438 94.8125 343.117188 115.347656 360.832031 C 121.539062 366.179688 128.125 371.71875 136.152344 373.292969 C 145.386719 375.105469 154.703125 371.339844 163.363281 367.65625 C 199.542969 352.257812 235.722656 336.859375 271.902344 321.460938 C 278.445312 318.679688 285.210938 315.734375 289.925781 310.417969 C 299.785156 299.304688 297.425781 282.300781 294.191406 267.800781 C 278.085938 195.625 254.964844 125.234375 231.878906 54.980469 C 229.613281 48.078125 227.085938 40.792969 221.453125 36.203125 C 206.59375 24.101562 193.15625 38.804688 186.609375 51.519531 C 178.101562 68.035156 166.691406 82.441406 155.890625 97.59375 C 131.179688 132.253906 107.28125 167.496094 84.222656 203.28125 C 70.960938 223.863281 57.976562 244.628906 45.273438 265.5625 Z M 45.273438 265.5625 " fill-opacity="1" fill-rule="nonzero"/><path fill="#a0b881" d="M 321.933594 271.820312 C 318.222656 251.523438 314.253906 231.277344 310.035156 211.082031 C 301.5625 170.527344 292.070312 130.183594 281.574219 90.105469 C 276.300781 69.984375 270.777344 49.929688 265.003906 29.949219 C 263.632812 25.214844 262.203125 20.484375 260.648438 15.804688 C 259.46875 12.257812 257.925781 8.457031 255.164062 5.824219 C 249.109375 0.0507812 241.09375 2.296875 236.261719 8.320312 C 231.289062 14.519531 228.835938 22.507812 225.214844 29.511719 C 221.453125 36.792969 217.441406 43.945312 213.308594 51.019531 C 204.867188 65.480469 195.683594 79.511719 186.234375 93.328125 C 167.355469 120.921875 147.046875 147.546875 128.929688 175.652344 C 124.484375 182.550781 120.613281 189.703125 116.453125 196.757812 C 112.257812 203.871094 108.257812 211.101562 104.34375 218.375 C 98.144531 229.886719 92.539062 241.726562 87.691406 253.871094 C 84.46875 259.179688 81.273438 264.507812 78.15625 269.871094 C 73.578125 277.75 69.222656 286.699219 69.660156 296.0625 C 70.441406 312.835938 85.335938 321.035156 99.953125 324.503906 C 108.820312 326.609375 117.960938 327.679688 126.957031 329.097656 C 137.4375 330.75 147.921875 332.371094 158.40625 334.003906 L 220.796875 343.71875 C 231.277344 345.351562 241.761719 346.984375 252.246094 348.617188 C 261.152344 350.003906 270.105469 351.617188 279.136719 351.832031 C 287.695312 352.035156 296.460938 350.859375 304.125 346.839844 C 311.542969 342.949219 317.3125 336.34375 320.808594 328.789062 C 329.195312 310.644531 325.386719 290.679688 321.933594 271.820312 Z M 300.691406 339.371094 C 286.164062 347.433594 267.296875 342.707031 251.890625 340.304688 C 211.652344 334.035156 171.421875 327.691406 131.167969 321.5 C 122.308594 320.136719 113.351562 319.050781 104.570312 317.230469 C 97.953125 315.859375 91.230469 313.953125 85.566406 310.140625 C 79.449219 306.027344 76.234375 299.5625 76.820312 292.175781 C 76.945312 290.578125 76.753906 283.210938 87.972656 264.757812 C 103.875 235.164062 120.019531 205.703125 136.363281 176.347656 C 139.820312 171.328125 143.285156 166.3125 146.789062 161.328125 C 155.988281 148.238281 165.441406 135.332031 174.742188 122.316406 C 193.421875 96.175781 211.957031 69.71875 226.714844 41.109375 C 230.339844 34.082031 233.726562 26.9375 237.128906 19.804688 C 238.878906 16.125 244.582031 5.421875 249.828125 10.6875 C 252.289062 13.15625 253.007812 17.265625 253.878906 20.492188 C 255.1875 25.351562 256.554688 30.191406 257.945312 35.027344 C 260.683594 44.539062 263.359375 54.0625 265.980469 63.605469 C 276.511719 101.941406 286.121094 140.527344 294.792969 179.324219 C 299.148438 198.804688 303.265625 218.335938 307.148438 237.914062 C 309.074219 247.621094 310.9375 257.339844 312.746094 267.070312 C 314.535156 276.683594 316.597656 286.332031 317.429688 296.085938 C 318.765625 311.855469 315.914062 330.921875 300.691406 339.371094 Z M 300.691406 339.371094 " fill-opacity="1" fill-rule="nonzero"/></svg>