<svg xmlns="http://www.w3.org/2000/svg" version="1.1" xmlns:xlink="http://www.w3.org/1999/xlink" xmlns:svgjs="http://svgjs.dev/svgjs" viewBox="0 0 800 800"><defs><linearGradient x1="50%" y1="0%" x2="50%" y2="100%" id="ccchaos-grad"><stop stop-color="hsl(265, 55%, 30%)" stop-opacity="1" offset="0%"></stop><stop stop-color="hsl(265, 55%, 60%)" stop-opacity="1" offset="100%"></stop></linearGradient></defs><g stroke-width="2" stroke="url(#ccchaos-grad)" fill="none" stroke-linecap="round"><path d="M111.04 127.51Q119.78 128.27 128.52 127.36 137.26 124.88 145.99 121.13 154.73 116.55 163.47 111.67 172.21 107.06 180.95 103.26 198.43 100.56 215.9 102.68 224.64 106.27 233.38 110.77 242.12 115.65 250.86 120.33 259.59 124.27 268.33 127.01 277.07 128.22 285.81 127.78 294.55 125.71 303.29 122.28 312.02 117.88 320.76 113.02 329.5 108.28 338.24 104.2 346.98 101.28 355.72 99.84 364.46 100.05 373.19 101.9 381.93 105.16 390.67 109.46 399.41 114.29 408.15 119.08 416.89 123.28 425.62 126.39 434.36 128.05 443.1 128.07 451.84 126.44 460.58 123.35 469.32 119.17 478.05 114.39 486.79 109.55 495.53 105.24 504.27 101.95 513.01 100.07 521.75 99.82 530.49 101.23 539.22 104.13 547.96 108.19 556.7 112.92 565.44 117.78 574.18 122.2 582.92 125.66 600.39 127.4 617.87 124.34 626.61 120.42 635.35 115.75 644.08 110.87 652.82 106.36 669.75 105.9 685.93 117.68 693.93 126.3 701.57 134.92 708.51 143.54 714.43 152.16 719.08 160.77 722.22 169.39 722.7 186.63 718.17 203.87 713.23 212.49 707.06 221.11 699.93 229.73 692.18 238.35 684.15 246.97 676.21 255.59 668.7 264.21 661.97 272.82 656.33 281.44 652.03 290.06 649 307.3 651.01 324.54 654.86 333.16 660.12 341.78 666.54 350.4 673.85 359.02 681.7 367.64 689.74 376.26 697.61 384.87 704.96 393.49 711.46 402.11 716.81 410.73 720.76 419.35 723.15 427.97 723.86 436.59 722.86 445.21 720.2 453.83 716 462.45 710.44 471.07 703.79 479.69 696.32 488.31 688.39 496.93 680.36 505.54 672.58 514.16 665.4 522.78 659.15 531.4 654.11 540.02 650.52 548.64 649.06 565.88 652.65 583.12 657.19 591.74 663.03 600.36 669.91 608.98 677.52 617.59 685.5 626.21 693.51 634.83 700.06 650.64 689.73 666.89 680.51 678.18 671.29 690.38 662.07 702.07 652.85 711.89 643.63 718.67 634.42 721.63 625.2 720.42 615.98 715.18 606.76 706.53 597.54 695.47 588.32 683.31 579.1 671.46 569.88 661.31 560.67 654.05 551.45 650.53 542.23 651.16 533.01 655.86 523.79 664.09 514.57 674.88 505.35 686.98 496.13 698.95 486.92 709.42 477.7 717.14 468.48 721.21 459.26 721.17 450.04 717.01 440.82 709.22 431.6 698.72 422.39 686.72 413.17 674.64 403.95 663.89 394.73 655.73 385.51 651.1 376.29 650.56 367.07 654.16 357.85 661.49 348.64 671.69 339.42 683.56 330.2 695.71 320.98 706.73 311.76 715.32 302.54 720.48 293.32 721.61 284.1 718.56 274.89 711.71 265.67 701.85 256.45 690.13 247.23 677.93 238.01 666.67 228.79 657.68 219.57 651.99 210.35 650.29 201.14 652.76 191.92 659.12 182.7 668.63 173.48 680.16 164.26 692.38 155.04 703.86 145.82 713.24 136.6 719.43 122.12 716.14 115.41 701.31 113.9 692.05 112.4 682.8 110.97 673.54 109.67 664.29 108.57 655.03 107.72 645.78 107.15 636.52 106.88 627.27 106.94 618.02 107.32 608.76 108 599.51 108.94 590.25 110.12 581 111.47 571.74 112.93 562.49 114.45 553.23 115.94 543.98 117.34 534.72 118.6 525.47 119.64 516.21 120.43 506.96 120.93 497.7 121.12 488.45 120.99 479.19 120.54 469.94 119.79 460.68 118.79 451.43 117.57 442.17 116.18 432.92 114.7 423.66 113.19 414.41 111.71 405.15 110.33 395.9 109.13 386.64 108.14 377.39 107.41 368.14 106.98 358.88 106.87 349.63 107.08 340.37 107.6 331.12 108.41 321.86 109.47 312.61 110.74 303.35 112.15 294.1 113.65 284.84 115.16 275.59 116.62 266.33 117.96 257.08 119.12 247.82 120.05 238.57 120.71 229.31 121.06 220.06 121.1 210.8 120.81 201.55 120.22 192.29 119.35 183.04 118.23 173.78 116.93 164.53 115.49 155.27 113.98 146.02 112.48 136.76 111.04 127.51" stroke-dasharray="10 6" transform="rotate(0, 400, 400)" opacity="0.85"></path><path d="M123.72 139.62Q140.76 135.68 157.79 127.24 174.83 117.85 191.87 111.48 208.9 110.8 225.94 116.1 242.97 125.15 260.01 134.13 277.04 139.27 294.08 138.39 311.11 131.87 328.15 122.45 345.18 114.11 362.22 110.35 379.26 112.76 396.29 120.33 413.33 129.86 430.36 137.34 447.4 139.62 464.43 135.74 481.47 127.33 498.5 117.94 515.54 111.52 532.57 110.77 549.61 116.02 566.64 125.05 583.68 134.06 600.72 139.25 617.75 138.43 634.79 131.95 651.82 122.54 668.86 114.17 684 130.88 697.65 147.59 707.56 164.31 712.09 181.02 710.5 197.73 703.04 214.44 690.96 231.16 676.23 247.87 661.3 264.58 648.64 281.29 640.32 298.01 637.73 314.72 641.3 331.43 650.43 348.14 663.62 364.85 678.68 381.57 693.14 398.28 704.6 414.99 711.17 431.7 711.77 448.42 706.29 465.13 695.65 481.84 681.6 498.55 666.45 515.27 652.72 531.98 642.66 548.69 637.95 565.4 639.35 582.12 646.64 598.83 658.61 615.54 673.29 632.25 688.25 648.97 670.73 669.1 653.22 691.72 635.7 707.29 618.19 709.26 600.67 696.79 583.15 675.14 565.64 653.43 548.12 640.8 530.61 642.59 513.09 658.02 495.57 680.61 478.06 700.83 460.54 710.17 443.03 704.69 425.51 686.69 407.99 663.77 390.48 645.58 372.96 639.78 355.45 648.82 337.93 668.88 320.41 691.52 302.9 707.2 285.38 709.31 267.87 696.96 250.35 675.36 232.83 653.6 215.32 640.86 197.8 642.5 180.29 657.83 162.77 680.39 145.26 700.68 127.74 710.15 124.64 692.32 121.6 674.49 119.12 656.66 117.61 638.83 117.32 621 118.3 603.17 120.38 585.34 123.23 567.51 126.36 549.69 129.27 531.86 131.48 514.03 132.61 496.2 132.48 478.37 131.12 460.54 128.75 442.71 125.76 424.88 122.64 407.05 119.91 389.22 118.02 371.39 117.28 353.57 117.82 335.74 119.54 317.91 122.16 300.08 125.25 282.25 128.3 264.42 130.8 246.59 132.35 228.76 132.68 210.93 131.74 193.1 129.69 175.27 126.86 157.44 123.72 139.62" stroke-dasharray="1 5" transform="rotate(4.04, 400, 400)" opacity="0.57"></path><path d="M136.8 149.11Q153.38 142.12 169.97 132.75 186.55 124.64 203.14 120.95 219.72 123.12 236.31 130.31 252.89 139.71 269.48 147.66 286.06 151.07 302.65 148.61 319.24 141.24 335.82 131.83 352.41 124.03 368.99 120.9 385.58 123.64 402.16 131.2 418.75 140.62 435.33 148.24 451.92 151.09 468.5 148.07 485.09 140.34 501.68 130.92 518.26 123.48 534.85 120.91 551.43 124.21 568.02 132.11 584.6 141.51 601.19 148.77 617.77 151.06 634.36 147.47 650.94 139.42 667.53 130.04 681.24 146.29 692.33 162.55 699.09 178.8 700.51 195.06 696.37 211.31 687.29 227.57 674.67 243.83 660.41 260.08 646.71 276.34 635.64 292.59 628.88 308.85 627.48 325.1 631.64 341.36 640.73 357.62 653.37 373.87 667.62 390.13 681.32 406.38 692.38 422.64 699.12 438.9 700.5 455.15 696.32 471.41 687.22 487.66 674.58 503.92 660.32 520.17 646.63 536.43 635.58 552.69 628.86 568.94 627.49 585.2 631.69 601.45 640.81 617.71 653.46 633.96 667.71 650.22 651.12 671.91 634.54 690.52 617.95 698.8 601.36 693.53 584.77 676.75 568.18 655.01 551.59 636.77 535 629.12 518.41 635.06 501.82 652.27 485.23 674.04 468.64 691.9 452.05 698.89 435.46 692.3 418.87 674.68 402.28 652.91 385.69 635.45 369.1 629.1 352.51 636.35 335.92 654.36 319.33 676.12 302.74 693.16 286.15 698.85 269.56 690.96 252.97 672.57 236.38 650.85 219.79 634.24 203.2 629.22 186.61 637.74 170.02 656.49 153.43 678.16 136.84 694.31 133.61 677.27 130.74 660.24 128.68 643.2 127.73 626.16 128.04 609.12 129.56 592.09 132.06 575.05 135.16 558.01 138.39 540.97 141.26 523.94 143.32 506.9 144.26 489.86 143.95 472.82 142.42 455.79 139.92 438.75 136.82 421.71 133.59 404.67 130.73 387.64 128.67 370.6 127.73 353.56 128.04 336.52 129.57 319.49 132.08 302.45 135.18 285.41 138.41 268.37 141.27 251.34 143.33 234.3 144.27 217.26 143.94 200.22 142.41 183.19 139.9 166.15 136.8 149.11" stroke-dasharray="7 8" transform="rotate(8.08, 400, 400)" opacity="0.69"></path><path d="M150.12 156.13Q166.23 147.32 182.34 138.4 198.45 132.56 214.56 131.9 230.67 136.65 246.78 145.11 262.89 154.24 279 160.78 295.11 162.37 311.22 158.45 327.33 150.42 343.45 141.16 359.56 133.99 375.67 131.49 391.78 134.55 407.89 142.07 424 151.35 440.11 159.08 456.22 162.47 472.33 160.31 488.44 153.38 504.55 144.16 520.66 135.95 536.77 131.71 552.88 132.95 568.99 139.22 585.1 148.29 601.22 156.89 617.33 161.94 633.44 161.63 649.55 156.08 665.66 147.26 677.2 163.09 685.35 178.91 688.97 194.73 687.55 210.56 681.29 226.38 671.06 242.2 658.31 258.02 644.81 273.85 632.46 289.67 622.98 305.49 617.71 321.31 617.38 337.14 622.04 352.96 631.04 368.78 643.11 384.61 656.56 400.43 669.52 416.25 680.16 432.07 687 447.9 689.07 463.72 686.09 479.54 678.48 495.37 667.29 511.19 654.1 527.01 640.76 542.83 629.13 558.66 620.84 574.48 617.06 590.3 618.31 606.13 624.42 621.95 634.53 637.77 647.23 653.59 631.55 673.19 615.88 685.54 600.2 686.22 584.52 674.99 568.85 655.87 553.17 635.72 537.49 621.76 521.82 619.01 506.14 628.44 490.46 646.68 474.79 667.19 459.11 682.6 443.43 687.4 427.76 679.86 412.08 662.69 396.4 642.04 380.73 625.32 365.05 618.52 349.37 624.09 333.7 640.03 318.02 660.61 302.34 678.46 286.67 687.18 270.99 683.64 255.31 669.11 239.63 648.8 223.96 629.99 208.28 619.44 192.6 620.91 176.93 633.89 161.25 653.72 145.57 673.29 142.44 657.13 139.95 640.97 138.44 624.81 138.13 608.65 139.07 592.49 141.11 576.33 143.98 560.16 147.27 544 150.52 527.84 153.28 511.68 155.16 495.52 155.89 479.36 155.38 463.19 153.69 447.03 151.07 430.87 147.88 414.71 144.56 398.55 141.58 382.39 139.36 366.23 138.21 350.06 138.29 333.9 139.59 317.74 141.93 301.58 144.98 285.42 148.31 269.26 151.45 253.09 153.97 236.93 155.52 220.77 155.87 204.61 154.97 188.45 152.96 172.29 150.12 156.13" stroke-dasharray="1 7" transform="rotate(12.12, 400, 400)" opacity="0.09"></path><path d="M163.51 161.26Q179.11 152.16 194.71 144.98 210.31 142.08 225.9 144.42 241.5 151.22 257.1 160.26 272.7 168.55 288.29 173.36 303.89 173.13 319.49 167.91 335.09 159.43 350.68 150.48 366.28 144 381.88 142.13 397.48 145.47 413.07 152.93 428.67 162.06 444.27 169.85 459.87 173.74 475.46 172.45 491.06 166.4 506.66 157.59 522.26 148.91 537.85 143.22 553.45 142.39 569.05 146.69 584.65 154.71 600.24 163.82 615.84 171 631.44 173.91 647.04 171.58 662.64 164.78 671.49 180.15 676.57 195.52 677.2 210.88 673.32 226.25 665.43 241.62 654.52 256.99 642.01 272.35 629.5 287.72 618.59 303.09 610.68 318.45 606.79 333.82 607.42 349.19 612.48 364.55 621.33 379.92 632.83 395.29 645.51 410.65 657.73 426.02 667.94 441.39 674.82 456.75 677.49 472.12 675.6 487.49 669.4 502.85 659.69 518.22 647.71 533.59 634.99 548.95 623.18 564.32 613.77 579.69 607.99 595.06 606.57 610.42 609.69 625.79 616.96 641.16 627.44 656.52 612.65 671.07 597.86 676.05 583.07 669.83 568.28 654.45 553.48 634.98 538.69 617.81 523.9 608.6 509.11 610.37 494.32 622.55 479.53 641.13 464.73 659.99 449.94 672.93 435.15 675.69 420.36 667.37 405.57 650.7 390.77 631.17 375.98 615.2 361.19 608.04 346.4 612.05 331.61 625.92 316.82 645.07 302.02 663.21 287.23 674.37 272.44 674.88 257.65 664.57 242.86 646.84 228.06 627.51 213.27 612.94 198.48 607.94 183.69 614.14 160.1 631.62 149.36 618.49 148.52 603.25 148.9 588.01 150.45 572.77 152.96 557.53 156.12 542.29 159.52 527.04 162.73 511.8 165.32 496.56 166.98 481.32 167.48 466.08 166.77 450.84 164.93 435.6 162.2 420.36 158.93 405.12 155.54 389.87 152.47 374.63 150.1 359.39 148.75 344.15 148.58 328.91 149.62 313.67 151.74 298.43 154.65 283.19 158 267.94 161.34 252.7 164.26 237.46 166.37 222.22 167.41 206.98 167.24 191.74 165.88 176.5 163.51 161.26" stroke-dasharray="8 0" transform="rotate(16.16, 400, 400)" opacity="0.18"></path><path d="M176.78 165.48Q191.82 157.6 206.85 153.14 221.89 153.45 236.93 158.42 251.96 166.58 267 175.46 282.04 182.4 297.07 185.31 312.11 183.32 327.15 177.02 342.18 168.31 357.22 159.81 372.26 154.07 387.29 152.81 402.33 156.42 417.37 163.8 432.41 172.75 447.44 180.57 462.48 184.91 477.52 184.47 492.55 179.38 507.59 171.16 522.63 162.3 537.66 155.45 552.7 152.67 567.74 154.79 582.77 161.19 597.81 169.92 612.85 178.38 627.88 184.02 642.92 185.14 657.96 181.41 663.86 196.26 665.91 211.11 663.88 225.96 658 240.81 648.97 255.66 637.82 270.51 625.89 285.36 614.54 300.21 605.13 315.05 598.74 329.9 596.12 344.75 597.59 359.6 602.96 374.45 611.61 389.3 622.54 404.15 634.45 419 645.96 433.85 655.71 448.7 662.58 463.55 665.75 478.39 664.85 493.24 659.99 508.09 651.74 522.94 641.07 537.79 629.21 552.64 617.56 567.49 607.49 582.34 600.16 597.19 596.44 612.04 596.77 626.88 601.1 641.73 608.93 656.58 594.98 664.27 581.03 661.96 567.09 650.34 553.14 632.91 539.19 614.9 525.25 601.73 511.3 597.36 497.35 603.09 483.4 617.2 469.46 635.47 455.51 652.38 441.56 662.87 427.62 663.78 413.67 654.84 399.72 638.73 385.77 620.3 371.83 605.08 357.88 597.65 343.93 600.24 329.99 612.07 316.04 629.59 302.09 647.53 288.15 660.5 274.2 664.61 260.25 658.61 246.3 644.32 232.36 626.02 218.41 609.22 204.46 598.96 190.52 598.32 168.47 608.47 159.11 595.11 159.02 580.79 160.09 566.47 162.21 552.15 165.12 537.83 168.48 523.51 171.9 509.19 174.99 494.86 177.37 480.54 178.77 466.22 179.03 451.9 178.12 437.58 176.13 423.26 173.32 408.94 169.99 394.62 166.55 380.3 163.4 365.97 160.9 351.65 159.35 337.33 158.92 323.01 159.68 308.69 161.52 294.37 164.24 280.05 167.52 265.73 170.97 251.41 174.18 237.09 176.79 222.76 178.49 208.44 179.08 194.12 178.49 179.8 176.78 165.48" stroke-dasharray="2 5" transform="rotate(20.200000000000003, 400, 400)" opacity="0.81"></path><path d="M189.71 169.99Q204.14 164.58 218.56 163.38 232.98 166.72 247.4 173.68 261.83 182.37 276.25 190.41 290.67 195.61 305.1 196.54 319.52 192.94 333.94 185.81 348.36 177.09 362.79 169.17 377.21 164.2 391.63 163.55 406.06 167.39 420.48 174.67 434.9 183.41 449.32 191.22 463.75 195.96 478.17 196.34 492.59 192.25 507.01 184.81 521.44 176.06 535.86 168.38 550.28 163.88 564.71 163.78 579.13 168.11 593.55 175.68 607.97 184.44 622.4 191.98 636.82 196.25 651.24 196.07 654.15 210.32 653.43 224.56 649.16 238.81 641.79 253.05 632.11 267.3 621.13 281.54 610.04 295.79 600.01 310.03 592.1 324.28 587.15 338.52 585.69 352.77 587.87 367.01 593.47 381.26 601.89 395.5 612.22 409.75 623.39 423.99 634.19 438.24 643.49 452.48 650.29 466.73 653.87 480.97 653.85 495.22 650.24 509.46 643.41 523.71 634.1 537.95 623.29 552.2 612.13 566.44 601.8 580.69 593.41 594.93 587.84 609.18 585.69 623.42 583.09 644.96 565.85 643.78 552.7 628.81 539.55 611.43 526.4 596.39 513.25 587.8 500.1 588 486.95 596.95 473.8 612.19 460.65 629.56 447.5 644.32 434.35 652.43 421.2 651.68 408.05 642.28 394.9 626.78 381.74 609.43 368.59 594.97 355.44 587.34 342.29 588.64 329.14 598.5 315.99 614.24 302.84 631.55 289.69 645.7 276.54 652.83 263.39 650.99 250.24 640.68 237.09 624.72 223.94 607.47 210.79 593.64 197.64 587.01 177.14 588.05 169.32 573.26 169.99 559.81 171.73 546.37 174.34 532.93 177.55 519.49 181.02 506.05 184.38 492.6 187.28 479.16 189.4 465.72 190.52 452.28 190.53 438.84 189.42 425.39 187.3 411.95 184.41 398.51 181.05 385.07 177.58 371.63 174.36 358.18 171.75 344.74 170.01 331.3 169.33 317.86 169.78 304.41 171.32 290.97 173.78 277.53 176.9 264.09 180.35 250.65 183.76 237.2 186.77 223.76 189.07 210.32 190.39 196.88 190.62 183.44 189.71 169.99" stroke-dasharray="7 9" transform="rotate(24.24, 400, 400)" opacity="0.93"></path><path d="M202.11 176Q215.86 173.83 229.62 175.91 243.37 181.71 257.13 189.81 270.88 198.2 284.64 204.81 298.39 208.01 312.15 207 325.9 202.03 339.66 194.34 353.41 185.82 367.17 178.58 380.92 174.41 394.68 174.34 408.44 178.38 422.19 185.54 435.95 194.05 449.7 201.81 463.46 206.89 477.21 208.04 490.97 204.98 504.72 198.47 518.48 190.1 532.23 181.96 545.99 176.05 559.74 173.83 573.5 175.86 587.25 181.62 601.01 189.7 614.76 198.1 628.52 204.75 642.27 207.99 642.37 221.54 639.26 235.09 633.25 248.64 624.92 262.18 615.05 275.73 604.61 289.28 594.58 302.83 585.94 316.37 579.51 329.92 575.91 343.47 575.48 357.02 578.27 370.56 584.01 384.11 592.15 397.66 601.9 411.21 612.33 424.75 622.44 438.3 631.27 451.85 637.95 465.4 641.86 478.94 642.61 492.49 640.14 506.04 634.68 519.59 626.76 533.14 617.13 546.68 606.72 560.23 596.53 573.78 587.53 587.33 580.6 600.87 576.39 614.42 570.18 631.64 552.65 622.6 540.24 606.53 527.83 591.06 515.43 580.03 503.02 576.16 490.61 580.4 478.21 591.71 465.8 607.29 453.4 623.29 440.99 635.76 428.58 641.61 416.18 639.4 403.77 629.68 391.37 614.84 378.96 598.56 366.55 584.86 354.15 577.12 341.74 577.26 329.34 585.24 316.93 599.1 304.52 615.4 292.12 630.11 279.71 639.61 267.3 641.54 254.9 635.43 242.49 622.79 230.09 606.73 217.68 591.24 205.27 580.13 192.87 576.16 180.46 580.3 179.74 567.67 180.11 555.03 181.51 542.4 183.83 529.76 186.83 517.13 190.23 504.49 193.71 491.86 196.93 479.23 199.57 466.59 201.4 453.96 202.22 441.32 201.97 428.69 200.67 416.05 198.43 403.42 195.49 390.78 192.11 378.15 188.62 365.52 185.37 352.88 182.65 340.25 180.73 327.61 179.8 314.98 179.94 302.34 181.15 289.71 183.29 277.07 186.18 264.44 189.53 251.81 193.02 239.17 196.31 226.54 199.1 213.9 201.1 201.27 202.14 188.63 202.11 176" stroke-dasharray="6 4" transform="rotate(28.28, 400, 400)" opacity="0.94"></path><path d="M213.8 184.48Q226.83 185.75 239.87 190.62 252.91 198.03 265.94 206.31 278.98 213.64 292.02 218.38 305.06 219.47 318.09 216.68 331.13 210.63 344.17 202.65 357.2 194.53 370.24 188.07 383.28 184.71 396.31 185.18 409.35 189.4 422.39 196.41 435.43 204.67 448.46 212.33 461.5 217.69 474.54 219.57 487.57 217.54 500.61 212.05 513.65 204.33 526.69 196.09 539.72 189.16 552.76 185.09 565.8 184.77 578.83 188.28 591.87 194.84 604.91 202.99 617.94 210.92 630.98 216.87 628.63 229.64 623.63 242.4 616.43 255.17 607.63 267.94 598.01 280.71 588.38 293.47 579.59 306.24 572.38 319.01 567.37 331.78 565.01 344.54 565.49 357.31 568.77 370.08 574.57 382.85 582.39 395.62 591.55 408.38 601.27 421.15 610.71 433.92 619.05 446.69 625.57 459.45 629.72 472.22 631.14 484.99 629.7 497.76 625.52 510.52 618.97 523.29 610.62 536.06 601.18 548.83 591.46 561.6 582.31 574.36 574.5 587.13 568.73 599.9 559.39 613.57 541.59 599.84 529.88 584.8 518.17 572.7 506.46 566.22 494.74 566.8 483.03 574.32 471.32 587.1 459.6 602.3 447.89 616.55 436.18 626.67 424.46 630.42 412.75 626.96 401.04 617.06 389.32 602.92 377.61 587.69 365.9 574.75 354.18 566.98 342.47 566.1 330.76 572.31 319.04 584.23 307.33 599.21 295.62 613.92 283.9 625.09 272.19 630.24 260.48 628.22 248.76 619.48 237.05 605.96 225.34 590.68 213.62 577.02 201.91 568.02 190.2 565.69 190.36 553.77 191.52 541.86 193.59 529.95 196.38 518.04 199.66 506.12 203.13 494.21 206.51 482.3 209.5 470.39 211.84 458.47 213.34 446.56 213.85 434.65 213.35 422.74 211.86 410.82 209.53 398.91 206.54 387 203.17 375.08 199.69 363.17 196.41 351.26 193.61 339.35 191.54 327.43 190.37 315.52 190.19 303.61 191.04 291.7 192.83 279.78 195.41 267.87 198.56 255.96 202 244.05 205.44 232.13 208.59 220.22 211.17 208.31 212.95 196.4 213.8 184.48" stroke-dasharray="8 6" transform="rotate(32.32, 400, 400)" opacity="0.79"></path><path d="M224.65 196.03Q236.93 200.31 249.2 207.11 261.48 215.08 273.75 222.64 286.03 228.28 298.3 230.88 310.58 229.93 322.86 225.62 335.13 218.8 347.41 210.82 359.68 203.28 371.96 197.67 384.23 195.1 396.51 196.09 408.78 200.44 421.06 207.28 433.34 215.26 445.61 222.79 457.89 228.37 470.16 230.9 482.44 229.87 494.71 225.49 506.99 218.62 519.27 210.64 531.54 203.13 543.82 197.57 556.09 195.08 568.37 196.15 580.64 200.57 592.92 207.45 605.19 215.44 617.47 222.94 613.16 234.87 606.83 246.8 598.98 258.73 590.2 270.66 581.18 282.59 572.61 294.52 565.14 306.45 559.35 318.38 555.69 330.31 554.44 342.24 555.7 354.17 559.36 366.1 565.15 378.03 572.62 389.96 581.19 401.89 590.21 413.82 598.99 425.75 606.84 437.68 613.16 449.61 617.47 461.54 619.44 473.47 618.91 485.39 615.93 497.32 610.71 509.25 603.68 521.18 595.36 533.11 586.39 545.04 577.48 556.97 569.29 568.9 562.47 580.83 550.67 592.05 532.73 577.13 521.66 564.88 510.59 557.02 499.53 555.12 488.46 559.55 477.39 569.43 466.33 582.81 455.26 597.01 444.19 609.23 433.12 617.03 422.06 618.86 410.99 614.36 399.92 604.42 388.85 591.02 377.79 576.82 366.72 564.64 355.65 556.91 344.58 555.15 333.52 559.71 322.45 569.7 311.38 583.13 300.31 597.32 289.25 609.46 278.18 617.14 267.11 618.83 256.04 614.19 244.98 604.15 233.91 590.7 222.84 576.52 211.77 564.41 200.71 556.8 201.73 545.52 203.62 534.25 206.22 522.98 209.36 511.7 212.77 500.43 216.19 489.15 219.38 477.88 222.07 466.6 224.06 455.33 225.2 444.06 225.4 432.78 224.65 421.51 223 410.23 220.58 398.96 217.58 387.69 214.23 376.41 210.78 365.14 207.5 353.86 204.64 342.59 202.43 331.32 201.03 320.04 200.55 308.77 201.02 297.49 202.42 286.22 204.64 274.95 207.49 263.67 210.77 252.4 214.22 241.12 217.58 229.85 220.58 218.58 223 207.3 224.65 196.03" stroke-dasharray="3 11" transform="rotate(36.36, 400, 400)" opacity="0.74"></path><path d="M234.6 210.68Q246.08 217.06 257.56 224.67 269.04 232.16 280.52 238.21 292.01 241.75 303.49 242.17 314.97 239.37 326.45 233.87 337.93 226.62 349.41 218.91 360.89 212.1 372.37 207.39 383.85 205.6 395.33 207.06 406.81 211.5 418.29 218.15 429.78 225.83 441.26 233.18 452.74 238.92 464.22 242.02 475.7 241.95 487.18 238.71 498.66 232.87 510.14 225.47 521.62 217.81 533.1 211.24 544.58 206.92 556.07 205.61 567.55 207.54 579.03 212.38 590.51 219.26 601.99 226.98 596.29 238.04 589.2 249.11 581.22 260.18 572.88 271.24 564.75 282.31 557.38 293.38 551.29 304.44 546.88 315.51 544.46 326.58 544.19 337.64 546.09 348.71 550.02 359.78 555.73 370.84 562.82 381.91 570.81 392.98 579.15 404.04 587.28 415.11 594.64 426.18 600.72 437.24 605.12 448.31 607.54 459.38 607.8 470.45 605.89 481.51 601.94 492.58 596.23 503.65 589.13 514.71 581.14 525.78 572.79 536.85 564.67 547.91 557.32 558.98 543.81 568.95 525.93 556.04 515.47 547.74 505.01 544.42 494.55 546.67 484.09 554.09 473.62 565.37 463.16 578.53 452.7 591.24 442.24 601.26 431.78 606.82 421.32 606.95 410.86 601.62 400.4 591.77 389.94 579.14 379.48 565.95 369.02 554.54 358.56 546.91 348.09 544.4 337.63 547.47 327.17 555.57 316.71 567.27 306.25 580.51 295.79 592.95 285.33 602.4 274.87 607.2 264.41 606.49 253.95 600.41 243.49 590.02 233.03 577.16 222.56 564.09 212.1 553.12 213.89 542.42 216.37 531.72 219.37 521.02 222.69 510.32 226.09 499.61 229.35 488.91 232.25 478.21 234.58 467.51 236.19 456.81 236.97 446.11 236.86 435.41 235.88 424.7 234.08 414 231.6 403.3 228.6 392.6 225.28 381.9 221.88 371.2 218.62 360.5 215.73 349.79 213.4 339.09 211.79 328.39 211.02 317.69 211.13 306.99 212.12 296.29 213.92 285.59 216.4 274.88 219.41 264.18 222.72 253.48 226.13 242.78 229.38 232.08 232.27 221.38 234.6 210.68" stroke-dasharray="1 9" transform="rotate(40.400000000000006, 400, 400)" opacity="0.82"></path><path d="M243.65 227.91Q254.31 235.19 264.98 242.44 275.64 248.54 286.31 252.53 296.97 253.8 307.64 252.15 318.3 247.84 328.97 241.53 339.63 234.21 350.29 227.01 360.96 221.05 371.62 217.25 382.29 216.21 392.95 218.09 403.62 222.59 414.28 229.02 424.95 236.37 435.61 243.51 446.27 249.33 456.94 252.92 467.6 253.73 478.27 251.63 488.93 246.95 499.6 240.41 510.26 233.03 520.93 225.95 531.59 220.28 542.25 216.9 552.92 216.32 563.58 218.64 576.34 231.93 571.13 250.58 563.47 260.79 555.9 271 548.87 281.22 542.82 291.43 538.09 301.64 534.98 311.86 533.66 322.07 534.23 332.28 536.64 342.49 540.76 352.71 546.32 362.92 553.01 373.13 560.42 383.35 568.1 393.56 575.59 403.77 582.45 413.98 588.26 424.2 592.68 434.41 595.43 444.62 596.36 454.84 595.41 465.05 592.64 475.26 588.2 485.48 582.37 495.69 575.51 505.9 568.01 516.11 560.33 526.33 552.93 536.54 538.53 546.35 520.93 537.89 511.05 534.03 501.17 534.99 491.28 540.6 481.4 550 471.52 561.73 461.63 573.97 451.75 584.81 441.87 592.58 431.98 596.06 422.1 594.72 412.22 588.76 402.33 579.12 392.45 567.28 382.57 555.09 372.68 544.43 362.8 536.97 352.92 533.86 343.03 535.58 333.15 541.87 323.27 551.76 313.39 563.69 303.5 575.83 293.62 586.29 283.74 593.44 273.85 596.17 263.97 594.07 254.09 587.45 244.2 577.34 234.32 565.32 224.44 553.24 226.85 543.08 229.75 532.91 232.97 522.74 236.3 512.58 239.56 502.41 242.55 492.24 245.08 482.08 247.01 471.91 248.21 461.74 248.63 451.58 248.22 441.41 247.02 431.24 245.11 421.08 242.58 410.91 239.6 400.74 236.34 390.58 233.01 380.41 229.79 370.24 226.88 360.08 224.46 349.91 222.67 339.74 221.63 329.57 221.38 319.41 221.95 309.24 223.3 299.07 225.36 288.91 227.99 278.74 231.04 268.57 234.33 258.41 237.66 248.24 240.83 238.07 243.65 227.91" stroke-dasharray="1 7" transform="rotate(44.44, 400, 400)" opacity="0.93"></path><path d="M251.87 246.7Q261.71 253.6 271.55 259.48 281.39 263.52 291.23 265.19 301.07 264.26 310.91 260.86 320.74 255.44 330.58 248.74 340.42 241.67 350.26 235.19 360.1 230.17 369.94 227.29 379.78 226.95 389.62 229.19 399.45 233.71 409.29 239.89 419.13 246.9 428.97 253.78 438.81 259.61 448.65 263.6 458.49 265.2 468.33 264.2 478.17 260.73 488 255.27 497.84 248.55 507.68 241.48 517.52 235.03 527.36 230.06 537.2 227.25 547.04 226.98 558.45 236.27 553 252.65 546.04 262.05 539.49 271.44 533.71 280.84 528.98 290.24 525.56 299.63 523.63 309.03 523.28 318.43 524.55 327.83 527.35 337.22 531.54 346.62 536.91 356.02 543.17 365.41 550 374.81 557.04 384.21 563.92 393.61 570.27 403 575.78 412.4 580.15 421.8 583.15 431.19 584.63 440.59 584.5 449.99 582.78 459.38 579.56 468.78 574.99 478.18 569.33 487.58 562.87 496.97 555.94 506.37 548.92 515.77 534.42 526.2 517.36 523.55 508.04 523.98 498.72 528.48 489.4 536.44 480.07 546.77 470.75 558.08 461.43 568.84 452.11 577.59 442.78 583.14 433.46 584.74 424.14 582.18 414.81 575.8 405.49 566.46 396.17 555.44 386.85 544.22 377.52 534.32 368.2 527.09 358.88 523.51 349.56 524.05 340.23 528.66 330.91 536.69 321.59 547.07 312.27 558.39 302.94 569.11 293.62 577.79 284.3 583.24 274.97 584.73 265.65 582.05 256.33 575.58 247.01 566.18 237.68 555.13 240.52 545.49 243.65 535.85 246.9 526.21 250.1 516.57 253.08 506.93 255.7 497.3 257.81 487.66 259.3 478.02 260.09 468.38 260.15 458.74 259.47 449.11 258.08 439.47 256.06 429.83 253.52 420.19 250.58 410.55 247.4 400.91 244.15 391.28 240.99 381.64 238.1 372 235.62 362.36 233.68 352.72 232.39 343.08 231.8 333.45 231.96 323.81 232.85 314.17 234.43 304.53 236.62 294.89 239.29 285.25 242.32 275.62 245.54 265.98 248.78 256.34 251.87 246.7" stroke-dasharray="7 0" transform="rotate(48.48, 400, 400)" opacity="0.71"></path><path d="M259.42 265.71Q268.43 271.13 277.45 274.9 286.46 276.57 295.48 275.95 304.5 273.12 313.51 268.39 322.53 262.34 331.54 255.66 340.56 249.13 349.58 243.53 358.59 239.5 367.61 237.52 376.62 237.81 385.64 240.36 394.66 244.85 403.67 250.76 412.69 257.4 421.7 263.99 430.72 269.76 439.74 274.05 448.75 276.33 457.77 276.35 466.78 274.11 475.8 269.87 484.82 264.12 493.83 257.53 502.85 250.89 511.86 244.95 520.88 240.43 529.9 237.84 540.22 242.79 535.19 256.71 529.21 265.35 523.85 273.99 519.35 282.63 515.92 291.26 513.51 308.54 515.11 325.81 518.18 334.45 522.37 343.09 527.49 351.73 533.31 360.37 539.57 369 545.98 377.64 552.26 386.28 558.11 394.92 563.29 403.55 567.55 412.19 571.94 429.47 572.38 446.74 570.26 455.38 566.91 464.02 562.48 472.66 557.17 481.3 551.23 489.93 544.91 498.57 531.02 510.03 514.76 513.39 506 517.38 497.23 524.38 488.46 533.55 479.7 543.83 470.93 554.01 462.16 562.9 453.39 569.46 444.63 572.93 435.86 572.89 427.09 569.36 418.32 562.74 409.56 553.81 400.79 543.61 392.02 533.35 383.26 524.21 374.49 517.27 365.72 513.34 356.95 512.88 348.19 515.94 339.42 522.17 330.65 530.84 321.88 540.92 313.12 551.25 304.35 560.62 295.58 567.92 286.82 572.31 278.05 573.26 269.28 570.68 257.65 556.12 257.93 538.3 261.03 529.21 263.95 520.12 266.56 511.04 268.73 501.95 270.38 492.87 271.42 483.78 271.81 474.69 271.53 465.61 270.59 456.52 269.05 447.44 266.96 438.35 264.42 429.26 261.54 420.18 258.46 411.09 255.31 402 252.24 392.92 249.39 383.83 246.87 374.75 244.82 365.66 243.31 356.57 242.42 347.49 242.19 338.4 242.62 329.31 243.71 320.23 245.39 311.14 247.6 302.06 250.23 292.97 253.17 283.88 256.27 274.8 259.42 265.71" stroke-dasharray="4 7" transform="rotate(52.52, 400, 400)" opacity="0.79"></path><path d="M266.49 283.49Q282.9 288.02 299.32 284.75 315.73 274.96 332.15 262.46 348.56 252.11 364.97 247.95 381.39 251.59 397.8 261.62 414.21 274.14 430.63 284.26 447.04 288.04 463.45 284.03 479.87 273.76 496.28 261.26 515.37 257.61 509.12 279.73 503.67 295.61 502.54 311.49 505.9 327.37 513.23 343.25 523.42 359.13 534.92 375.02 545.97 390.9 554.89 406.78 560.33 422.66 561.44 438.54 558.07 454.43 550.73 470.31 540.53 486.19 529.03 502.07 512.62 507.17 496.21 521.93 479.8 540.61 463.39 555.94 446.98 561.94 430.56 556.28 414.15 541.17 397.74 522.48 381.33 507.5 364.92 502.05 348.51 508.27 332.1 523.72 315.69 542.4 299.27 557.02 282.86 561.9 266.45 555.13 272.44 538.16 277.75 521.18 281.57 504.2 283.32 487.22 282.74 470.24 279.91 453.27 275.27 436.29 269.52 419.31 263.53 402.33 258.23 385.35 254.41 368.38 252.66 351.4 253.25 334.42 256.09 317.44 260.74 300.46 266.49 283.49" stroke-dasharray="6 7" transform="rotate(56.56, 400, 400)" opacity="0.51"></path><path d="M273.36 298.74Q288.2 298.44 303.04 291.74 317.88 280.84 332.72 269.34 347.56 261.02 362.4 258.6 377.24 262.9 392.08 272.49 406.91 284.22 421.75 294.23 436.59 299.23 451.43 297.57 466.27 289.8 481.11 278.47 498.91 270.96 495.42 289.2 492.24 303.8 492.75 318.4 496.89 333 504.11 347.6 513.51 362.2 523.86 376.8 533.85 391.39 542.19 405.99 547.81 420.59 549.98 435.19 548.44 449.79 543.38 464.39 535.45 478.99 525.66 493.59 510.41 504.14 495.15 520.24 479.89 536.59 464.64 547.81 449.38 550.21 434.13 542.99 418.87 528.54 403.62 511.61 388.36 497.76 373.1 491.56 357.85 495.04 342.59 507.06 327.34 523.66 312.08 539.39 291.9 541.45 291.34 518.16 294.13 502.49 294.98 486.81 293.78 471.14 290.68 455.47 286.08 439.8 280.58 424.12 274.87 408.45 269.68 392.78 265.7 377.11 263.42 361.43 263.14 345.76 264.89 330.09 268.45 314.42 273.36 298.74" stroke-dasharray="9 9" transform="rotate(60.599999999999994, 400, 400)" opacity="0.53"></path><path d="M280.34 310.61Q293.66 306.13 306.98 297.25 320.29 286.38 333.61 276.5 346.93 270.31 360.25 269.49 373.57 274.28 386.89 283.36 400.21 294.25 413.53 303.98 426.85 309.89 440.17 310.36 453.49 305.27 466.81 296 483.52 287.01 482.81 302.31 481.6 315.7 483.41 329.1 488.04 342.49 495.01 355.88 503.56 369.27 512.8 382.67 521.75 396.06 529.44 409.45 535.07 422.84 538.03 436.24 538.02 449.63 535.03 463.02 529.38 476.41 521.67 489.81 507.62 503.16 493.56 518.38 479.51 531.3 465.46 538.41 451.4 537.75 437.35 529.51 423.3 515.94 409.24 500.74 395.19 488.07 381.13 481.39 367.08 482.53 353.03 491.17 338.97 504.95 324.92 520.11 306.09 528.5 304.61 510.24 306.36 495.98 306.36 481.72 304.63 467.46 301.35 453.2 296.86 438.94 291.64 424.68 286.24 410.42 281.24 396.16 277.18 381.9 274.47 367.65 273.42 353.39 274.12 339.13 276.51 324.87 280.34 310.61" stroke-dasharray="7 9" transform="rotate(64.64, 400, 400)" opacity="0.67"></path><path d="M287.72 318.79Q299.58 311.45 311.44 301.79 323.3 291.96 335.16 284.13 347.02 280.05 358.88 280.63 370.74 285.73 382.6 294.23 394.46 304.23 406.33 313.51 418.19 320.01 430.05 322.28 441.91 319.82 453.77 313.18 469.46 304.94 471.31 318.28 471.71 330.5 474.46 342.72 479.33 354.94 485.9 367.15 493.59 379.37 501.75 391.59 509.67 403.81 516.67 416.03 522.15 428.25 525.63 440.47 526.82 452.69 525.61 464.91 522.1 477.13 516.61 489.35 503.81 502.81 491.01 515.42 478.22 524.39 465.42 527.71 452.63 524.64 439.83 515.88 427.03 503.36 414.24 489.87 401.44 478.41 388.65 471.53 375.85 470.75 363.05 476.25 350.26 486.81 337.46 500.07 319.07 498.18 317.44 471.94 315.29 459.18 311.91 446.41 307.58 433.65 302.69 420.89 297.66 408.13 292.91 395.36 288.85 382.6 285.85 369.84 284.15 357.07 283.9 344.31 285.12 331.55 287.72 318.79" stroke-dasharray="4 3" transform="rotate(68.68, 400, 400)" opacity="0.84"></path><path d="M295.81 323.64Q306.27 315.09 316.73 306 327.19 297.97 337.65 292.41 348.12 290.3 358.58 292.02 369.04 297.26 379.5 305.1 389.96 314.16 400.42 322.83 410.88 329.59 421.35 333.25 431.81 333.17 442.27 329.34 456.93 323.62 460.9 335.8 462.51 346.84 465.87 357.87 470.73 368.9 476.77 379.93 483.58 390.97 490.69 402 497.61 413.03 503.88 424.07 509.06 435.1 512.81 446.13 514.87 457.17 515.09 468.2 513.46 479.23 510.1 490.27 498.62 501.65 487.14 510.62 475.66 515.61 464.18 515.72 452.7 510.95 441.22 502.13 429.74 490.81 418.26 479 406.78 468.78 395.3 461.94 383.82 459.7 372.34 462.45 360.86 469.7 349.38 480.18 331.4 480.76 328.19 458.29 325.74 447.07 322.36 435.85 318.27 424.63 313.75 413.41 309.11 402.19 304.67 390.97 300.73 379.75 297.56 368.52 295.37 357.3 294.31 346.08 294.46 334.86 295.81 323.64" stroke-dasharray="3 11" transform="rotate(72.72, 400, 400)" opacity="0.72"></path><path d="M304.88 326.15Q313.99 318.02 323.11 310.56 332.22 304.79 341.34 301.48 350.45 301.09 359.57 303.66 368.68 308.86 377.8 315.97 386.91 324.03 396.02 331.95 405.14 338.66 414.25 343.24 423.37 345.09 432.48 343.94 446.01 341.7 451.51 353.26 453.93 363.06 457.56 372.86 462.21 382.66 467.63 392.46 473.54 402.26 479.63 412.06 485.58 421.85 491.09 431.65 495.85 441.45 499.63 451.25 502.23 461.05 503.51 470.85 503.4 480.65 501.91 490.45 491.8 498.37 481.69 503.4 471.58 504.86 461.48 502.53 451.37 496.75 441.26 488.29 431.15 478.3 421.04 468.13 410.93 459.17 400.82 452.62 390.71 449.37 380.6 449.86 370.5 454.03 360.39 461.32 343.06 461.48 338.6 442.27 335.99 432.59 332.71 422.92 328.91 413.24 324.81 403.57 320.61 393.89 316.54 384.21 312.8 374.54 309.6 364.86 307.1 355.18 305.43 345.51 304.67 335.83 304.88 326.15" stroke-dasharray="3 2" transform="rotate(76.76, 400, 400)" opacity="0.09"></path><path d="M315.13 327.77Q330.75 316.15 346.37 311.48 361.99 315.57 377.6 326.84 393.22 340.89 408.84 352.26 424.46 356.52 440.07 352 443.03 369 449.48 385.99 458.45 402.99 468.57 419.98 478.3 436.98 486.15 453.97 490.93 470.97 491.91 487.96 474.53 493.47 457.15 488.28 439.77 474.41 422.38 457.27 405 443.52 387.62 438.53 370.24 444.23 352.85 458.41 352.14 442.08 348.66 425.75 342.95 409.42 335.87 393.09 328.51 376.76 321.98 360.43 317.28 344.1 315.13 327.77" stroke-dasharray="1 7" transform="rotate(80.80000000000001, 400, 400)" opacity="0.39"></path><path d="M326.71 330.17Q339.76 323.36 352.82 322.47 365.88 327.73 378.94 337.71 392 349.68 405.06 360.37 418.11 366.86 431.17 367.37 435.32 381.63 441.57 395.88 449.23 410.13 457.51 424.39 465.52 438.64 472.42 452.89 471.55 473.97 451.16 473.13 436.68 460.52 422.2 446.4 407.72 434.62 393.24 428.42 378.76 429.47 364.28 437.5 362.24 424.09 358.37 410.67 353.08 397.25 346.93 383.83 340.57 370.42 334.68 357 329.89 343.58 326.71 330.17" stroke-dasharray="4 3" transform="rotate(84.84, 400, 400)" opacity="0.23"></path><path d="M339.63 334.92Q350.15 332.65 360.67 334.5 371.19 340.14 381.71 348.58 392.23 358.32 402.75 367.65 413.27 374.93 423.79 378.87 428.23 390.28 433.75 401.68 439.96 413.08 446.45 424.49 452.78 435.89 458.5 447.3 459.18 462.15 443.58 457.3 432.04 446.65 420.5 435.53 408.96 425.9 397.42 419.46 385.88 417.35 374.35 419.94 371.57 409.31 367.74 398.68 363.11 388.06 357.99 377.43 352.73 366.8 347.7 356.17 343.23 345.55 339.63 334.92" stroke-dasharray="2 0" transform="rotate(88.88, 400, 400)" opacity="0.48"></path><path d="M353.86 343.24Q369.79 347.56 385.73 359.44 401.67 374.27 417.61 386.27 425.96 403.27 435.39 420.27 439.52 439.15 417.4 424.66 400.22 411.53 383.03 406.76 376.78 390.88 369.04 375 360.99 359.12 353.86 343.24" stroke-dasharray="4 6" transform="rotate(92.92, 400, 400)" opacity="0.44"></path><path d="M369.21 355.74Q379.97 361.58 390.72 370.31 401.48 380.4 412.24 390.07 418.15 401.27 424.34 412.48 427.41 424.13 413.12 413.79 401.78 404.46 390.43 398.22 385.52 387.6 380.1 376.98 374.54 366.36 369.21 355.74" stroke-dasharray="7 2" transform="rotate(96.96, 400, 400)" opacity="0.48"></path></g></svg>