<svg xmlns="http://www.w3.org/2000/svg" version="1.1" xmlns:xlink="http://www.w3.org/1999/xlink" xmlns:svgjs="http://svgjs.dev/svgjs" viewBox="0 0 800 800"><defs><linearGradient x1="50%" y1="0%" x2="50%" y2="100%" id="ssscribble-grad"><stop stop-color="hsl(206, 75%, 49%)" stop-opacity="1" offset="0%"></stop><stop stop-color="hsl(331, 90%, 56%)" stop-opacity="1" offset="100%"></stop></linearGradient></defs><g fill="none" stroke-width="1.5" stroke="url(#ssscribble-grad)" stroke-linecap="round"><path d="M687.53 622.78C682.81 656.6 823.66 685.56 1000.35 706.08 1097.13 722.04 1046.38 721.75 888.22 700.06 709.27 669.74 602.85 619.81 602.6 560.33 694.53 518.8 816.24 501.41 908.46 530.53 947.1 613.31 914.41 743.21 832.36 892.76 716.9 1012.84 599.57 1065.85 498.88 1023.4 407.88 907.44 340.1 763.45 289.92 666.01 245.88 676.21 209.07 794.35 175.24 964.38 141.42 1092.57 112.18 1104.57 92.42 1001.27 78.81 836.99 85.04 691.73 117.42 624.7 159.49 654.65 221.12 753.51 284.44 868.4 314.35 962.13 298.48 993.11 215.5 959.37 78.94 872.71 -82.87 757.68 -210.01 641.5 -244.99 530.46 -168.91 443.86 -14.75 381.69 118.6 336.01 150.1 304.78 40.27 278.71 -149.47 257.48 -297.18 231.91 -292.46 198.09 -137.61 164.26 52.2 123.77 146.34 81.21 90.1 43.48 -64.95 13.18 -210.49 0.23 -266.03 3.77 -196.13 34.65 -45.89 93.56 122.26 157.6 238.52 224.08 277.53 266.4 242.44 255.82 166.48 184.75 88.51 55.81 1.98 -158.9 35.07 -173.06 106 41.15 160.57 131.42 207.58 112.6 241.4 -15.55 275.23 -185.59 294.27 -296.9 303.5 -294.08 318.48 -183.6 335.78 -20.35 368.99 120.41 425.58 187.67 514.24 165.01 636.43 80.16 766.54 -34.16 891.06 -123.96 970.49 -162.41 975.81 -147.2 899.66 -81.26 766.73 12.38 651.7 124 612.15 229.64 692.48 318.58 862.81 398.9 1037.14 460.73 1106.42 508.57 1025.34 551.85 842.38 588.95 687.53 622.78Q687.53 622.78 687.53 622.78" opacity="0.81"></path><path d="M652.56 524.82C642.31 556.23 762.02 572.86 928.43 574.23 1047.1 574.03 1045.26 556.96 932.27 525.25 763.73 497.07 619.31 465.42 550.67 444.16 570.92 451.61 654.22 492.76 754.11 576.35 844.74 691.18 888.04 824.81 881.25 945.62 833.1 1016.75 756.59 1016.57 672.21 937.8 579.17 815.09 497.33 690.29 432.17 622.38 368.51 651.92 320.87 770.79 289.46 929.37 258.05 1051.64 244.36 1075.38 248.77 996.05 254.7 851.14 279.4 702.79 318.01 606.26 347.95 588.65 372.72 644.33 372.47 739.39 330.84 845.64 242.44 919.4 110.65 943.82 -30.4 920.52 -150.94 854.67 -203.9 766.41 -167.97 662.86 -51.72 564.65 93.78 480.97 183.75 403.83 167.71 343.19 36.92 295.94 -141.6 252.39 -267.67 215.98 -257.43 184.57 -116.57 153.16 63.39 128.23 173.67 112.53 157.25 100.55 36.01 104.04 -111.32 126.74 -213.41 155.98 -213.93 202.47 -121.79 257.61 27.01 297.46 174.44 318.22 278.68 300.37 325.53 234.79 315.75 123.8 273.31 -15.15 207.58 -142.93 149.8 -226.79 112.78 -232.22 85.79 -158.73 82.38 -28.26 96.38 104.52 115.76 171.75 143.3 141.67 174.71 19.43 206.12 -139.15 239.92 -251.67 279.77 -269.12 325.01 -189.11 385.56 -46.43 466.99 99.3 558.44 201.1 667.95 229.47 782.09 191.06 872.95 102.97 927.82 6.58 922.14 -67.08 859.07 -109.51 748.89 -105.57 632.78 -64.62 573.34 5.03 602.04 88.4 727.15 171.02 897.52 257.17 1036.64 331.38 1065.17 390.82 967.02 448.7 793.42 493.4 652.56 524.82Q652.56 524.82 652.56 524.82" opacity="0.30"></path><path d="M617.56 351.96C602.7 380.95 701.85 394.56 853.7 394.74 984.62 396.38 1024.51 388.35 961.91 377.08 825.58 376.62 672.93 386.03 557.53 416.2 506.19 471.85 523.97 556.55 586.53 666.98 676.14 782.91 754.72 891.57 804.08 965.74 827.07 985.02 815.59 940.92 781.01 840.93 729.53 723.83 672.31 623.83 619.66 584.49 564.09 630 519.99 747.48 490.99 894.37 462 1010.12 449.48 1043.56 450.37 986.99 448.34 864.79 452.82 722.59 454.05 608.07 438.38 550.31 402.12 559.01 334.43 617.77 240.39 709.46 120.18 797.72 -7.42 859.85 -107.98 892.07 -160.14 883.85 -139 844.33 -53.78 780.39 72.85 704.75 187.92 629.61 229.28 550.63 172.88 481.78 30.77 426.15 -132.27 371.46 -237.29 329.32 -222.43 300.32 -95.33 271.33 72.72 256.85 193.45 256.85 212.6 257.8 130.92 273.9 -0.41 302.63 -126.1 327.53 -184.78 355.42 -160.25 374.67 -64.52 369.52 68.28 336.12 197.78 265.91 304.08 165.78 365.83 43.14 387.2 -78.74 373.99 -167.7 343.63 -202.4 312.69 -165.91 275.83 -72.66 253.06 53.02 247.88 164.04 244.15 209.44 256.96 170.15 285.95 54.43 314.95 -92.45 358.76 -204.08 417.16 -238.42 477.03 -187.91 552.55 -71.42 639.65 66.93 720.84 188.18 798.95 258.29 856.85 269.21 880.17 225.24 860.04 150.95 791.75 73.02 651.04 -20.93 584.28 -19.75 773.56 50.12 926.16 111.64 1024.35 172.41 1016.39 225.46 906.84 279.96 744.66 322.96 617.56 351.96Q617.56 351.96 617.56 351.96" opacity="0.44"></path><path d="M582.91 207.79C563.79 234.37 642.87 253.27 776.75 267.01 910.8 283.6 982.83 300.73 969.55 324.5 879.76 359.27 746.62 409.59 614.55 479.82 512.17 563.32 462.93 662.41 463.86 766.71 507.8 856.38 570.86 921.35 632.11 943.41 691.14 917.74 727.96 844.36 741.9 738.8 743.28 637.47 728.35 565.41 704.49 552.3 676.51 610.14 647.39 724.27 620.82 859.24 594.24 967.89 571.46 1008.95 549.31 973.29 523.04 875.66 489.62 747.39 442.18 626.77 382.19 540.38 301.6 506.2 201.6 521.4 99.39 578.67 -1.82 653.79 -80.6 725.58 -116.36 789.09 -98.64 825.6 -23.93 834.22 80.45 821.35 189.75 788.16 260.07 744.15 253.86 690.65 166.71 637.2 22.39 589.98 -121.73 541.22 -206.2 502.33 -187.08 475.75 -73.06 449.17 81.39 436.16 206.67 434.78 254.82 431.88 213.58 436.98 111.41 444.42 -14.31 442.37 -108.94 431.79 -143.85 403.71 -115.07 354.14 -31.56 279.48 78.9 181.13 199.45 74.51 302.72 -32.12 378.19 -117.07 428.28 -159.96 452.27 -149.63 460.64 -82.74 455.25 18.38 449.03 131.53 449.99 218.92 448.63 244.34 459.93 197.92 486.51 89.29 513.09 -45.68 553.68 -154.43 605.17 -202.05 654.33 -178.69 708.9 -91.51 760.35 29.29 798.04 154.34 817.83 251.56 808.7 304.91 774.2 310.53 709.08 277.07 623.37 222.24 547.74 152.78 495.74 91.84 494.64 49.31 557.22 20.04 675.69 13.49 820.9 24.78 942.55 47.07 998.92 78.29 961.02 111.83 846.01 148.22 696.93 181.21 582.91 207.79Q582.91 207.79 582.91 207.79" opacity="0.82"></path><path d="M547.53 179.14C526.14 203.31 587.35 230.16 701.38 261 829.89 294.2 921.62 335.57 949.41 387.86 910.04 446.13 816 517.64 697.5 600.46 577.28 682.9 483.49 765.85 426.97 837.56 408.19 884.92 421.25 901.14 451.92 877.71 498.21 821.2 541.38 735.51 573.16 638.44 602.95 560.04 617.23 516.51 616.79 526.13 614.16 592.59 600.16 701.51 576 824.38 551.84 925.39 518.65 971.94 475.72 954.83 430.59 882.15 372.36 773.61 300.7 657.89 227.03 556.53 144.08 489.89 60.55 463.76 -7.36 477.58 -55.1 519.79 -67.99 575.08 -43.14 639.65 21.99 694.44 117.05 732.46 210.39 759.38 282.77 766.95 304.42 759.11 258.92 742.28 153.43 717.16 15.6 689.13 -107.75 658.65 -173.85 630.07 -152.46 605.91 -51.93 581.74 87.51 563.15 212.61 548.06 283.46 530.52 280.94 511.68 216.31 486.65 110.59 452.62 5.34 405.26 -68.96 341.11 -101.21 265.85 -81.34 176.37 -21.27 80.13 68.54 -6.82 167.94 -77.69 261.08 -116.68 348.05 -115.72 416.17 -70.76 466.26 12.88 505.41 110.88 533.33 205.67 555.93 269.04 575.12 276.84 595.48 225.42 619.64 124.43 643.81 1.55 670.63 -102.48 697 -159.63 719.97 -159.94 736.01 -102.67 738.73 -6.56 730.51 108.22 702.18 215.58 652.45 297.26 596.55 345.85 531.84 358.28 473.7 342.59 445.29 302.55 454.07 254.29 511.48 209.09 610.95 163.51 737.88 131.79 861.3 115.39 943.64 104.98 959.92 107.56 898.4 119.93 782.62 134.65 648.06 154.98 547.53 179.14Q547.53 179.14 547.53 179.14" opacity="0.87"></path><path d="M512.83 282.78C489.13 304.53 533.3 335.64 626.02 375.69 742.2 416.53 842.32 467.37 900.44 527.17 907.93 586.82 862.4 652.5 779.81 718.86 674.53 775.81 569.47 822.39 480.52 849.6 411.34 853.19 369.52 828.71 350.7 775.29 351.75 705.5 363.94 623.66 378.44 545.83 399.27 494.06 413.55 477.29 417.25 505.28 421.52 576.6 413.42 678.64 391.67 789.27 369.93 882.1 335.56 932.04 290.29 930.69 245.57 881.95 191.73 796.7 133.22 694.92 81.03 592.27 33.03 507.35 -1.52 449.93 -16.23 422.77 -5.62 424.41 35.05 446.65 95.49 487.18 174.77 532.17 257.41 573.08 317.35 614.18 343.38 643.34 319.95 659.36 245.89 670.91 133.39 670.99 8.82 661.87 -92.28 650.95 -140.86 634 -117.16 612.25 -29.04 590.51 94.54 565 214.27 534.91 299.07 503.02 328.35 463.38 302.41 414.16 230.06 360.45 138.02 295.48 51.54 220.87 -18.23 146.44 -52.14 70.23 -49.45 1.19 -15.24 -49.55 43.33 -76.98 113.44 -72.48 193.28 -37.71 269.08 27.69 334.9 114.39 398.21 200.24 449.52 273.12 489.44 313.48 527.5 306.46 557.13 252.13 578.87 159.32 600.62 48.69 613.45 -48.95 616.4 -111.9 617.49 -131.51 605.74 -102.37 580.13 -34.67 551.99 59.09 512 160.43 465.68 252.87 429.08 328.94 401.72 379.21 396.02 404.12 421.83 405.42 481.52 390.06 573.95 366.62 683.07 333.78 794.61 303.91 882.9 281.95 924.78 259.83 907.88 248.55 831.47 248.72 720.13 249.68 600.95 261.03 512.83 282.78Q512.83 282.78 512.83 282.78" opacity="0.68"></path><path d="M477.53 456.91C453.17 476.24 482.87 504.83 554.66 541.19 653.46 576.95 750.79 619 825.19 664.3 867.63 705.58 867.69 745.13 830.42 777.54 763.07 798.44 678.78 804.76 591.51 791.91 504.95 763.09 431.64 714.87 374.81 650.86 330.64 584.73 301.26 519.4 282.13 467.16 270.87 442.23 262.86 448.47 253.65 489.85 246.4 562.43 234.04 656.11 214.72 754.38 195.39 838.54 170 889.78 140.8 901.07 113.54 874 86.39 813.28 64.16 731.7 49.79 639.57 47.34 551.4 61.71 477.4 88.75 420.97 134.31 386.79 195.53 372.65 257.47 377.05 318.84 393.45 366.06 415.14 383.2 444.18 365.81 470.28 309.2 489.53 220.63 509.29 112.29 519.81 6.04 520.25 -73.2 520.24 -106.82 510.71 -82.46 491.38 -6.83 472.05 100.15 443.85 210.61 407.41 301.9 370.51 355.13 324.84 364.66 271.58 331.62 218.83 269.63 160.9 195.74 102.06 117.63 50.58 54.9 6.42 15.12 -23.32 -4.08 -34.51 1.65 -23.26 26.32 13.02 66.12 66.89 114.32 137.72 163.7 215.68 217.49 283.09 266.06 332.82 306.05 352.45 346.39 333.71 376.96 278.57 396.28 194.43 415.61 96.15 422.8 6.39 418.91 -58.74 415.37 -92.68 401.97 -87.93 381.67 -48.84 365.79 17.57 349.43 100.23 339.42 186.49 344.55 270.63 366.55 341.78 411.1 395.93 476.22 434.12 561.86 455.55 660.11 464.44 754.12 461.82 833.45 454.11 880.65 446.33 885.3 434.52 843.07 427.63 759.23 428.34 656.23 428.43 553.16 437.58 477.53 456.91Q477.53 456.91 477.53 456.91" opacity="0.46"></path><path d="M442.52 596.8C437.79 630.62 570.64 678.02 728.42 721.55 828.08 747.25 807.47 737.72 705.63 674.34 559.99 585.82 429.47 477.39 339.13 406.52 265.27 429.38 217.29 549.39 183.47 719.43 149.64 847.59 133.17 857.25 148.4 761.34 180.12 607.45 257.85 462.42 359.15 367.96 416.65 324.51 401.39 322.33 276.93 329.62 94.35 349.97 -52.2 349.43 -47.47 315.6 107.37 281.78 296.81 217.87 398.24 138.89 372.88 72.98 264.58 22.37 156.24 21.48 71.21 71.61 52.81 180.75 79.45 309.85 129.83 380.96 183.2 357.59 217.02 229.43 250.85 59.39 261.94 -46.89 270.17 -44.97 302.16 50.69 373.35 195.01 502.71 327.86 655.4 435.58 799.57 497.9 849.73 530.83 773.09 545.92 597.37 562.97 442.52 596.8Q442.52 596.8 442.52 596.8" opacity="0.27"></path><path d="M407.56 618.55C392.7 647.54 485.39 665.05 618.59 662.63 741.2 649.7 789.8 603.28 765.57 525.65 688.18 452.22 588.84 386.31 502.11 366.73 413.79 419.09 352.34 537.49 323.35 684.37 294.36 800.12 300.56 830.83 338.63 778.12 375.12 666.84 429.21 536.87 468.59 426.53 454.82 338.59 375.46 285.44 231.59 254.77 77.15 237.27 -27.29 219.39 -12.43 190.4 114.65 161.4 281.87 124.04 403.37 91.29 441.9 71.71 400.82 79.61 326.19 129.55 233.27 201.87 170.73 301.08 147.84 391.12 138.19 422.58 153.3 380.14 182.29 264.42 211.29 117.53 251.42 10.86 311.32 -20.25 384.46 20.57 492.24 117.23 623.17 228.67 735.81 344.3 807.64 435.97 790.36 499.15 690.12 551.82 534.65 589.55 407.56 618.55Q407.56 618.55 407.56 618.55" opacity="0.47"></path><path d="M372.78 509.1C351.05 533.26 407.13 533.49 505.11 510.72 619.71 486.22 701.98 440.02 736.44 383.9 734.49 345.69 698.38 326.91 651.51 348.44 594.73 417.22 548.32 526.43 524.16 649.29 500 750.3 500.37 793.94 515.28 777.25 520.28 712.55 518.68 618.44 488.95 522.6 422.83 426.89 314.93 350.55 182.62 296.44 66.92 249.26 1.05 215.1 22.78 190.93 123.55 166.77 262.12 154.89 383.84 160.2 462.62 172.44 484.15 211.07 465.32 275.11 414.13 339.28 362.79 407.76 331.29 454.75 299.82 453.73 294.91 400.3 319.07 299.29 343.23 176.43 394.18 77.02 467.52 25.94 540.89 22.12 629.95 66.53 712.81 136.41 763.31 224.2 767.4 308.11 706.33 374.49 602.32 439.13 473.55 484.93 372.78 509.1Q372.78 509.1 372.78 509.1" opacity="0.44"></path><path d="M337.53 334.29C313.17 353.62 339.53 352.97 399.68 337.05 484.54 324.17 563.76 303.3 620.52 285.37 663.9 285.03 680.08 304.1 676.2 350.54 664.64 422.52 645.71 516.12 626.38 614.38 607.05 698.54 589.15 746.96 567.22 755.99 537.6 732.52 491.25 681.55 422.54 619.15 340.44 546.85 240.72 479.62 141.68 426.4 67.36 373.9 33.17 336.37 57.53 317.04 133.16 297.71 239.39 298.41 345.1 317.41 436.64 337.14 497.36 374.2 527.49 421.16 528.3 473.47 501.41 446.67 520.37 334.38 539.69 236.12 577.27 150.36 624.79 92.54 666.41 60.28 705.32 61.7 725.47 87.39 720.69 130.65 680.48 181.69 603.12 228.06 511.59 277.48 413.2 314.95 337.56 334.28Q337.53 334.29 337.53 334.29" opacity="0.41"></path><path d="M302.7 198.77C287.62 227.76 367.36 233.38 454.34 252.52 546.19 312.36 578.93 432.45 549.94 579.32 520.94 695.07 435.7 720.14 305.85 678.53 180.87 599.4 77.62 521.77 92.7 492.78 219.95 463.78 385.41 488.91 496.87 530.04 566.43 533.65 597.03 485.07 626.03 369.32 655.02 222.45 676.92 125.87 645.36 104.03 571.9 122.89 429.95 169.77 302.7 198.77Q302.7 198.77 302.7 198.77" opacity="0.61"></path><path d="M267.53 184.08C276.22 222.73 394 352.4 355.35 544.38 316.69 682.58 136.22 651.57 127.53 612.92 310.91 574.26 514.49 542.58 553.15 404.38 591.8 212.4 450.91 145.42 267.53 184.08Q267.53 184.08 267.53 184.08" opacity="0.97"></path></g></svg>